<?xml version="1.0" encoding="UTF-8" standalone="no"?>
<svg width="487px" height="62px" viewBox="0 0 487 62" version="1.1" xmlns="http://www.w3.org/2000/svg" xmlns:xlink="http://www.w3.org/1999/xlink">
    <!-- Generator: Sketch 39.1 (31720) - http://www.bohemiancoding.com/sketch -->
    <title>Logo</title>
    <desc>Created with Sketch.</desc>
    <defs></defs>
    <g id="Identity" stroke="none" stroke-width="1" fill="none" fill-rule="evenodd">
        <g id="logo">
            <g id="Logo">
                <path d="M0.9849,59.2652 L0.9849,2.0802 L19.0237,2.0802 C12.1789,19.0127 13.2904,35.9457 23.9484,52.6792 C15.7832,35.2518 16.1644,17.1299 24.5972,2.0802 L50.5121,2.0802 C49.5843,2.5491 48.7518,3.0117 48.0945,3.3876 C45.5002,4.9843 38.5156,10.9711 31.5313,14.6632 C27.5404,17.9559 30.5333,21.0488 26.0435,30.9267 C27.5404,31.7249 29.0369,31.9248 30.0344,33.4212 C29.2361,34.6186 29.0369,35.1177 28.638,37.0133 L30.1339,36.5144 L30.8329,39.1089 L35.6223,33.82 L40.0126,35.2172 C36.52,15.9598 67.3519,28.3327 58.9704,40.2062 C55.9776,44.4967 49.6912,43.8983 45.3009,43.9981 C44.0038,47.0913 44.4026,52.8782 47.2965,55.1731 C51.2877,58.1665 58.2725,56.9692 59.3695,53.6767 C65.6557,34.1197 78.7268,45.1955 80.3235,59.2641 L80.3269,59.2641 L80.3269,59.2652 L0.9849,59.2652 Z M60.5677,2.0802 L66.6645,2.0802 C64.8019,4.9648 59.1575,5.5702 58.4718,7.9777 C58.0727,9.973 53.6824,11.1704 50.3894,12.4675 C47.8952,13.4659 46.5986,14.2641 46.6975,12.9664 C48.5939,8.9752 54.979,7.1795 56.0771,7.9777 C57.1557,5.5269 58.7147,3.7504 60.5677,2.0802 L60.5677,2.0802 Z M78.7248,2.0802 L86.1768,2.0802 L86.1768,9.6266 C79.7745,10.9518 80.2949,15.0958 75.4343,17.9559 C71.3434,20.3506 67.4523,18.7539 70.4451,17.3567 C73.8381,16.9579 74.1369,15.3611 75.5341,13.8647 C77.9288,10.5717 79.5256,7.8779 84.2146,6.9796 C83.616,5.4832 80.1237,4.2859 77.3301,8.4766 C76.2329,11.9689 63.6887,19.0442 62.0642,17.2569 C61.5896,16.7351 61.1157,13.1132 66.9806,11.7665 C72.8454,10.42 71.0528,6.775 77.2304,4.086 C78.2945,3.6228 78.6959,2.8487 78.7248,2.0802 L78.7248,2.0802 Z M86.1768,13.2677 L86.1768,17.3065 C83.0904,18.5005 82.1173,23.5603 74.9354,24.7407 C74.9354,24.7407 72.9396,25.5386 71.8423,26.6365 C69.3472,29.0312 68.9487,27.1354 68.9487,27.1354 C70.0462,20.3506 76.9103,21.9548 79.8252,19.6516 C82.7398,17.3485 82.9269,14.6675 86.1768,13.2677 L86.1768,13.2677 Z M86.1768,20.9045 L86.1768,25.7866 C84.6101,27.5107 82.6193,27.8335 80.8224,28.4325 C79.0255,29.0315 77.4305,31.2266 76.9307,29.4303 C76.6317,27.5348 80.3235,26.6365 81.6207,25.938 C83.5162,24.7407 85.0126,23.1439 85.6118,21.8471 C85.7595,21.4777 85.9599,21.1645 86.1768,20.9045 L86.1768,20.9045 Z M86.1768,30.5939 L86.1768,34.4074 C85.99,34.4848 85.827,34.5752 85.6118,34.7189 C83.9156,35.6166 82.3188,35.5169 80.6231,36.3151 C79.0264,37.0133 78.1281,39.9071 77.3301,38.311 C76.6317,37.0133 77.2304,34.6186 79.0264,34.1197 C82.2743,33.0689 84.4233,31.8355 86.1768,30.5939 L86.1768,30.5939 Z M86.1768,38.3563 L86.1768,40.533 C84.6673,41.3299 83.2636,41.545 82.2196,40.406 C81.4477,39.5384 83.9374,39.6957 86.1768,38.3563 L86.1768,38.3563 Z M64.3591,8.4766 C64.9572,7.08 70.2461,4.4851 71.0443,3.1883 C72.6408,4.2859 69.5473,5.583 68.8489,6.8798 C68.1499,7.7776 63.9597,9.5742 64.3591,8.4766 L64.3591,8.4766 Z" id="Fill-57" fill="#1E1917"></path>
                <path d="M288.1104,55.6474 C281.762,57.4304 275.3307,58.7703 268.8076,59.6746 C262.2899,60.5777 255.686,61.021 248.9849,61.021 C234.7221,61.021 224.6932,58.4769 218.8912,53.3901 C213.0941,48.3076 211.5413,40.7193 214.256,30.6268 C216.9469,20.6239 222.6653,13.1118 231.4169,8.0809 C240.1763,3.0454 251.9605,0.5274 266.7491,0.5274 C272.7642,0.5274 278.666,0.7839 284.4291,1.284 C290.1925,1.784 295.8323,2.5278 301.3148,3.5282 L295.9255,23.56 C290.5564,23.06 285.71,22.6813 281.4,22.4188 C277.0783,22.156 273.4774,22.0217 270.5869,22.0217 C263.2588,22.0217 257.5087,23.0308 253.3307,25.061 C249.1457,27.0951 246.5004,30.1526 245.4039,34.2305 C244.4073,37.9359 245.0944,40.7666 247.4415,42.7203 C249.7928,44.6776 253.7024,45.6572 259.1917,45.6572 C259.3527,45.6572 259.6188,45.6433 259.9644,45.6056 C260.3244,45.5671 260.5803,45.5419 260.7555,45.5419 L264.9097,30.1007 L294.9836,30.1007" id="Fill-58" fill="#E8112E"></path>
                <polyline id="Fill-59" fill="#E8112E" points="166.1098 59.2513 181.4946 2.066 215.1597 2.066 199.7746 59.2513"></polyline>
                <polyline id="Fill-60" fill="#E8112E" points="107.1611 59.2513 116.2135 25.6058 96.6026 25.6018 96.8475 24.7656 102.9545 2.066 172.4679 2.066 166.1266 25.6044 149.7911 25.6058 140.7386 59.2513"></polyline>
                <path d="M390.1268,59.2513 L405.5115,2.066 L468.2136,2.066 C475.396,2.066 480.4613,3.4258 483.4053,6.1573 C486.3494,8.8888 487.1048,12.9159 485.6767,18.2252 C484.3175,23.2777 481.5458,27.2598 477.3695,30.165 C473.1946,33.0691 467.6359,34.8717 460.712,35.5387 L477.2088,59.2513 L438.5802,59.2513 L428.221,40.9509 L423.397,59.2513 L390.1268,59.2513 Z M431.4329,29.3827 L437.8568,29.3827 C442.28,29.3827 445.5342,28.913 447.6412,27.9591 C449.7561,27.0021 451.1198,25.394 451.7267,23.1371 C452.2373,21.239 451.7985,19.8965 450.4095,19.1357 C449.012,18.3706 446.073,17.9945 441.6068,17.9945 L434.4966,17.9945 L431.4329,29.3827 Z" id="Fill-61" fill="#E8112E"></path>
                <path d="M291.7203,59.2513 L328.1424,2.066 L379.5598,2.066 L385.2994,59.2513 L351.3862,59.2513 L351.3446,51.8387 L329.6638,51.8387 L325.2953,59.2513 L291.7203,59.2513 Z M338.8565,36.026 L351.5178,36.026 L351.4653,14.9934 L338.8565,36.026 Z" id="Fill-62" fill="#E8112E"></path>
            </g>
        </g>
    </g>
</svg>