<svg id="katman_1" data-name="katman 1" xmlns="http://www.w3.org/2000/svg" viewBox="0 0 125 40"><defs><style>.cls-1,.cls-3{fill:#fff;}.cls-2{fill:#007a4e;}.cls-2,.cls-3,.cls-4{fill-rule:evenodd;}.cls-4{fill:#e40520;}</style></defs><rect class="cls-1" width="125" height="40"/><path class="cls-2" d="M1022.5,525.11H918.2a57.26,57.26,0,0,0-7,.26,15.78,15.78,0,0,0-10.23,5,14.65,14.65,0,0,0,9.49,24.19,42.86,42.86,0,0,0,6.86.31h96.88l8.26-29.76Z" transform="translate(-897.5 -520)"/><path class="cls-3" d="M1013.72,554.2h-94.9c-5.8,0-11.82.39-16.36-4a14.24,14.24,0,0,1-1-19.36c2.37-2.81,6.11-4.33,9.83-4.77a55.5,55.5,0,0,1,6.87-.26h103.41l-7.89,28.43Z" transform="translate(-897.5 -520)"/><path class="cls-4" d="M999.94,545.19a5.16,5.16,0,0,0-.15,1.06c0,.88.69,1,1.42,1h1.46l-.59,2.51h-2.92a6.07,6.07,0,0,1-2.08-.26,2.63,2.63,0,0,1-1.65-2.6,7.78,7.78,0,0,1,.27-1.81c.17-.76,4.12-14.92,4.12-14.92l4.49-.85s-4.22,15.19-4.37,15.82Zm-24.57-11.32h-3.13l1.23-4.5-4.5.73-1,3.77h-1.54l-.7,2.49h1.55s-2.4,8.75-2.58,9.47a6.92,6.92,0,0,0-.23,1.53,2.3,2.3,0,0,0,1.75,2.28,7.12,7.12,0,0,0,1.75.17h3.11l.71-2.51h-1.59c-.7,0-1.35-.06-1.35-.87a3.4,3.4,0,0,1,.13-.74c.09-.35,2.57-9.33,2.57-9.33h3.12l.71-2.49Zm-10.08-.08a11.93,11.93,0,0,0-3.4-.47c-3.3,0-6.8,1.78-6.83,5.5,0,3.37,4.05,4.5,4,6.41,0,1.55-1.4,2.13-2.74,2.13a13.09,13.09,0,0,1-3.29-.43l-.74,2.57a15.73,15.73,0,0,0,4.47.63c3.33,0,6.43-1.9,6.46-5.51s-3.83-4.37-3.81-6.41c0-1.58,1.6-2.05,2.91-2.05a10.63,10.63,0,0,1,2.17.2l.76-2.57ZM941.78,533c0-2.9-2-3.93-4.59-3.93a8.49,8.49,0,0,0-6.61,3.25c-2.37,2.84-4.33,8.84-4.33,12.5,0,3.83,1.58,5.67,5.47,5.67,5.41,0,6.73-4.4,8-8.76l-4.68.89c-.38,1.22-1.31,4.77-2.95,4.77-1,0-1.2-.93-1.2-1.76,0-2.46,1.46-7.13,2.34-9.47.47-1.24,1.67-4.07,3.31-4.07a.88.88,0,0,1,.75.39,1.45,1.45,0,0,1,.19.82,6.31,6.31,0,0,1-.09.79c-.11.59-1,3.67-1,3.67l4.51-.79a15.68,15.68,0,0,0,.87-4Zm43.41.74a6.52,6.52,0,0,0-2.7-.44,13,13,0,0,0-5.67,1.18l-4.25,15.29h4.28l3.64-13.31a5.6,5.6,0,0,1,1.94-.32c.55,0,.86,0,1.12.05l1.64-2.45Zm-31.78,5.83-2.71,9.86a24,24,0,0,1-5.86.78c-2.51,0-5-1.22-5-4.07,0-4.94,5.32-6.34,9.3-6.72a6.54,6.54,0,0,0,.41-2c0-1.12-1-1.38-1.9-1.38a15.91,15.91,0,0,0-4.36.76l.71-2.69a13.76,13.76,0,0,1,4.85-.85c2.4,0,5,.76,5,3.63a10.1,10.1,0,0,1-.41,2.66Zm-9.15,6c0,1,.46,1.79,1.55,1.79a5.4,5.4,0,0,0,1.2-.09l1.43-5.23c-2,.23-4.18,1.19-4.18,3.53Zm50.17-2.37c-1.38,3.84-3.63,6.93-8.07,6.93-3.09,0-4.83-1.48-4.83-4.64a13.77,13.77,0,0,1,.79-4.22c1.26-3.69,4-8,8.33-8,3.26,0,4.83,1.63,4.83,4.86a17,17,0,0,1-1.05,5Zm-3.95-7.13a1.5,1.5,0,0,0-1.12.53c-1.11,1.09-2.4,4.43-3,7a11.11,11.11,0,0,0-.43,2.68c0,.69.32,1.07.86,1.07a1.85,1.85,0,0,0,1.2-.63,8.58,8.58,0,0,0,1.44-2.58,25.43,25.43,0,0,0,1.86-7c0-.53-.15-1-.78-1Z" transform="translate(-897.5 -520)"/><path class="cls-2" d="M906.51,535.82h17a11.78,11.78,0,0,0-11-7.59,9.5,9.5,0,0,0-4.1.86l-1.89,6.73Z" transform="translate(-897.5 -520)"/><path class="cls-2" d="M905.72,543.51a4.57,4.57,0,0,1-1.85-.29,2.08,2.08,0,0,1-1.24-2,9.73,9.73,0,0,1,.55-2.73l2.26-7.89a11.76,11.76,0,1,0,18.29,12.93Z" transform="translate(-897.5 -520)"/><path class="cls-4" d="M907.27,541.35a.2.2,0,0,1,.2-.2h.46a.19.19,0,0,1,.19.2.18.18,0,0,1-.19.18h-.46a.19.19,0,0,1-.2-.18Z" transform="translate(-897.5 -520)"/><path class="cls-4" d="M905.45,539.68a.19.19,0,0,1,.19-.19h.47a.19.19,0,1,1,0,.37h-.47a.19.19,0,0,1-.19-.18Z" transform="translate(-897.5 -520)"/><path class="cls-4" d="M908.5,540.5a.28.28,0,0,1,.28-.27h.75a.28.28,0,0,1,0,.55h-.75a.28.28,0,0,1-.28-.28Z" transform="translate(-897.5 -520)"/><path class="cls-4" d="M910.89,540.92h-.84a.42.42,0,0,0,0,.83h.6l.24-.83Z" transform="translate(-897.5 -520)"/><path class="cls-4" d="M907.77,539.68a.19.19,0,0,1,.19-.19h.47a.19.19,0,0,1,.19.19.18.18,0,0,1-.19.18H908a.18.18,0,0,1-.19-.18Z" transform="translate(-897.5 -520)"/><path class="cls-4" d="M906,538a.19.19,0,0,1,.19-.19h.47a.2.2,0,0,1,.19.19.2.2,0,0,1-.19.2h-.47a.19.19,0,0,1-.19-.2Z" transform="translate(-897.5 -520)"/><path class="cls-4" d="M909,538.82a.29.29,0,0,0,.28.28H910a.28.28,0,0,0,.27-.28.27.27,0,0,0-.27-.27h-.75a.28.28,0,0,0-.28.27Z" transform="translate(-897.5 -520)"/><path class="cls-4" d="M910.57,540.09h.57l.25-.85h-.82a.42.42,0,0,0-.41.43.41.41,0,0,0,.41.42Z" transform="translate(-897.5 -520)"/><path class="cls-4" d="M908.27,538a.19.19,0,0,1,.19-.19h.46a.2.2,0,1,1,0,.39h-.46a.19.19,0,0,1-.19-.2Z" transform="translate(-897.5 -520)"/><path class="cls-4" d="M911.83,537.59h-.78a.41.41,0,1,0,0,.82h.58l.25-.82Z" transform="translate(-897.5 -520)"/><path class="cls-4" d="M905,541.35a.19.19,0,0,1,.19-.2h.46a.19.19,0,0,1,.19.2.18.18,0,0,1-.19.18h-.46a.18.18,0,0,1-.19-.18Z" transform="translate(-897.5 -520)"/><path class="cls-4" d="M906.85,538.83a.18.18,0,0,1,.19-.19h.46a.19.19,0,0,1,.2.19.2.2,0,0,1-.2.19H907a.19.19,0,0,1-.19-.19Z" transform="translate(-897.5 -520)"/><path class="cls-4" d="M906.34,540.49a.19.19,0,0,1,.2-.18H907a.19.19,0,1,1,0,.38h-.46a.19.19,0,0,1-.2-.2Z" transform="translate(-897.5 -520)"/><path class="cls-4" d="M924.16,539.78a11.3,11.3,0,0,0-.22-2.19H912.57a.42.42,0,0,1,.32.41.41.41,0,0,1-.42.41h-.84l-.24.83h.6a.43.43,0,0,1,0,.85h-.85l-.25.83h.58a.41.41,0,0,1,.42.42.43.43,0,0,1-.35.41H924a10.69,10.69,0,0,0,.18-2Zm-8.28-1.18h.52a.22.22,0,0,1,.22.23.23.23,0,0,1-.22.23h-.52a.23.23,0,0,1-.23-.23.23.23,0,0,1,.23-.23Zm-1.07-.79h.52a.22.22,0,0,1,.23.22.23.23,0,0,1-.23.24h-.52a.23.23,0,0,1-.23-.24.22.22,0,0,1,.23-.22Zm-1.74.71h.85a.31.31,0,0,1,.31.31.31.31,0,0,1-.31.31h-.85a.31.31,0,0,1-.32-.31.31.31,0,0,1,.32-.31Zm-.5,2.29a.31.31,0,0,1-.31-.31.31.31,0,0,1,.31-.31h.86a.31.31,0,0,1,.31.31.31.31,0,0,1-.31.31Zm1.78.72h-.52a.23.23,0,1,1,0-.45h.52a.23.23,0,1,1,0,.45Zm.49-1.63h-.52a.23.23,0,1,1,0-.46h.52a.23.23,0,1,1,0,.46Zm1.07.83h-.53a.23.23,0,0,1,0-.46h.53a.23.23,0,0,1,0,.46Zm1.06.8h-.52a.23.23,0,1,1,0-.45H917a.23.23,0,1,1,0,.45Zm.49-1.63h-.52a.23.23,0,1,1,0-.46h.52a.23.23,0,1,1,0,.46Zm.49-1.63h-.53a.23.23,0,0,1-.22-.24.22.22,0,0,1,.22-.22H918a.22.22,0,0,1,.22.22.23.23,0,0,1-.22.24Z" transform="translate(-897.5 -520)"/></svg>