<svg id="Capa_1" data-name="Capa 1" xmlns="http://www.w3.org/2000/svg" viewBox="0 0 125.22 40.22"><defs><style>.cls-1{fill:#1d1d1b;stroke:#1d1d1b;stroke-miterlimit:22.93;stroke-width:0.22px;}.cls-1,.cls-2,.cls-3{fill-rule:evenodd;}.cls-2{fill:#e30613;}.cls-3{fill:#fff;}</style></defs><path class="cls-1" d="M2537.61,1336.29h119c1.66,0,3,1.79,3,4v32.06c0,2.19-1.35,4-3,4h-119c-1.66,0-3-1.78-3-4v-32.06C2534.6,1338.08,2536,1336.29,2537.61,1336.29Z" transform="translate(-2534.49 -1336.18)"/><polygon class="cls-2" points="102.31 5.82 102.31 27.89 112.87 34.39 123.04 28.84 123.04 6.62 112.74 12.4 102.31 5.82"/><path class="cls-2" d="M2541.46,1358.69l.57-3.17,4.81-.12-2.51,8.68c-2.3.91-7.61,1.31-7.66-4.53,0-4.06,2.49-9.21,5.32-9.29l4.85-.13L2546,1354l-4.32.08c-.47,0-2,1.48-1.59,4.62.07.59.41,2.3,2,1.93l.39-1.82Z" transform="translate(-2534.49 -1336.18)"/><polygon class="cls-2" points="12.95 17.91 13.65 13.98 21.68 13.98 20.95 17.91 17.13 17.91 16.86 19.5 19.98 19.5 19.17 22.85 16.13 22.85 15.89 24.21 19.81 24.21 18.87 27.89 11.55 27.89 13.72 17.91 12.95 17.91"/><polygon class="cls-2" points="31.34 17.91 32.05 13.98 40.07 13.98 39.34 17.91 35.52 17.91 35.26 19.5 38.37 19.5 37.56 22.85 34.52 22.85 34.29 24.21 38.2 24.21 37.26 27.89 29.94 27.89 32.11 17.91 31.34 17.91"/><polygon class="cls-3" points="90.87 17.91 91.57 13.98 99.6 13.98 98.86 17.91 95.05 17.91 94.78 19.5 97.89 19.5 97.09 22.85 94.05 22.85 93.81 24.21 97.72 24.21 96.79 27.89 89.46 27.89 91.64 17.91 90.87 17.91"/><polygon class="cls-2" points="21.58 17.91 22.28 13.98 26.3 13.98 27.36 19.73 28.57 13.98 31.45 13.98 28.6 27.89 25.59 27.89 24.29 21.94 22.92 27.89 20.18 27.89 22.35 17.91 21.58 17.91"/><path class="cls-2" d="M2574.4,1354.1l.7-3.94h6.29c3.62,0,4.16,6,.17,8.89l.93,5H2579l-.42-4.7-.8-.15-1.26,4.85H2573l2.18-10Zm3.81,2.55c1.69.16,1.94-.6,2.19-1.49s-.14-1.18-1.62-1.06Z" transform="translate(-2534.49 -1336.18)"/><path class="cls-2" d="M2586.15,1354.1l1.42-3.94h5.12l.23,13.92h-3.44l0-2.38-2.69-.06-.94,2.44h-3l4.06-10Zm3.27,4.29,0-3.61-1.44,3.57Z" transform="translate(-2534.49 -1336.18)"/><polygon class="cls-2" points="60.44 17.91 61.14 13.98 65.49 13.98 64.35 19.5 63.38 24.21 66.79 24.21 65.86 27.89 59.03 27.89 61.21 17.91 60.44 17.91"/><path class="cls-3" d="M2615.4,1354.1l.7-3.94h6.28c3.63,0,4.17,6,.18,8.89l.93,5H2620l-.42-4.7-.8-.15-1.26,4.85H2614l2.17-10Zm3.81,2.55c1.69.16,1.93-.6,2.19-1.49s-.14-1.18-1.62-1.06Z" transform="translate(-2534.49 -1336.18)"/><polygon class="cls-3" points="68.06 17.95 68.93 13.98 76.82 13.98 76.02 17.95 73.81 17.95 71.81 27.89 68.06 27.89 70.47 17.95 68.06 17.95"/><polygon class="cls-3" points="77.69 13.98 74.88 27.89 78.3 27.89 81.18 13.98 77.69 13.98"/><path class="cls-3" d="M2643.71,1359.19c-1.12,0-1.28-3.59.2-3.62l4.91-.11,0,8.62h-6c-5.19,0-4.37-13.62.88-13.76h.43l2.38,4.41-2.76.06c-2.29,0-2,6.16-.1,6l2.41-.15v-1.48Zm1.06-8.9,2.33,4.42,1.67,0-2.61-4.42-1.39,0Zm2.09-.06,5.69,9.71v-5.2l2.73,0v-4.63l-6.8,0-1.63,0Zm5.69,10.83v2.81l-3.27-5.58,0-2.83,3.31,5.6Zm-.56,3h-2.62l-.07-4.55Z" transform="translate(-2534.49 -1336.18)"/></svg>