<svg id="katman_1" data-name="katman 1" xmlns="http://www.w3.org/2000/svg" viewBox="0 0 125 40"><defs><style>.cls-1{fill:#0056a4;}.cls-1,.cls-2{fill-rule:evenodd;}.cls-2{fill:#fd0;}</style></defs><polygon class="cls-1" points="0 0 125 0 125 40 0 40 0 0 0 0"/><polygon class="cls-2" points="12.91 28.82 15.38 14.61 20.85 14.61 18.39 28.82 12.91 28.82 12.91 28.82"/><path class="cls-2" d="M917.62,549.34l2.46-14.21h5.43l3.5,7.44c0-.33,0-.7.06-1.1s.13-.92.24-1.57l.82-4.77h5.34L933,549.34h-5.47L924.08,542a9.58,9.58,0,0,1-.06,1c0,.37-.09.77-.16,1.23l-.89,5.12Z" transform="translate(-897.06 -520.52)"/><path class="cls-2" d="M947.56,540.73a4.6,4.6,0,0,0-1.39-1,3.75,3.75,0,0,0-1.61-.34,3.51,3.51,0,0,0-2.31.78,3.24,3.24,0,0,0-1.15,2.08,2.3,2.3,0,0,0,.47,2,2.49,2.49,0,0,0,2,.76,5,5,0,0,0,1.68-.32,10.56,10.56,0,0,0,2-1l-1,5.4a11.45,11.45,0,0,1-1.9.52,10.48,10.48,0,0,1-1.83.17,9.59,9.59,0,0,1-2.13-.23,7,7,0,0,1-1.78-.67,6.36,6.36,0,0,1-2.65-2.78,6.55,6.55,0,0,1-.44-3.86,8.38,8.38,0,0,1,1.07-3,8.89,8.89,0,0,1,2.12-2.43,9.51,9.51,0,0,1,2.91-1.6,10.2,10.2,0,0,1,3.36-.55,9.13,9.13,0,0,1,1.82.18,7.51,7.51,0,0,1,1.68.55l-.84,5.32Z" transform="translate(-897.06 -520.52)"/><path class="cls-2" d="M967.22,544.18h2.33l-.18-1.61q-.12-1.23-.12-1.89a8.2,8.2,0,0,1,.07-1.24h-.1a9.18,9.18,0,0,1-.39,1.24c-.17.44-.44,1.07-.83,1.89l-.78,1.61Zm-8.36,5.16L967,535.13h6.22L976,549.34h-6l-.17-1.78h-4.21l-.81,1.78Z" transform="translate(-897.06 -520.52)"/><polygon class="cls-2" points="79.61 28.76 81.86 14.55 87.25 14.55 86.3 20.61 90.75 14.55 96.98 14.55 91.25 21.55 95.38 28.76 88.72 28.76 85.95 22.82 85.01 28.76 79.61 28.76 79.61 28.76"/><path class="cls-2" d="M993,542.72l1.32-7.7h5.47l-1.32,7.74a3.33,3.33,0,0,0,0,1.86,1.09,1.09,0,0,0,1.09.51,1.55,1.55,0,0,0,1.26-.53,3.91,3.91,0,0,0,.67-1.84l1.33-7.74h5.47l-1.32,7.7a12.68,12.68,0,0,1-.64,2.5,5.34,5.34,0,0,1-1,1.64,7.46,7.46,0,0,1-2.85,2,9.46,9.46,0,0,1-3.73.71,7.86,7.86,0,0,1-3.5-.71,4.62,4.62,0,0,1-2.15-2,3.88,3.88,0,0,1-.38-1.63,11.94,11.94,0,0,1,.22-2.51Z" transform="translate(-897.06 -520.52)"/><path class="cls-2" d="M915.71,529.41a2.49,2.49,0,1,1-2.75,2.48,2.63,2.63,0,0,1,2.75-2.48Z" transform="translate(-897.06 -520.52)"/><polygon class="cls-2" points="50.65 28.82 53.11 14.61 58.58 14.61 56.12 28.82 50.65 28.82 50.65 28.82"/><path class="cls-2" d="M953.45,529.41a2.49,2.49,0,1,1-2.76,2.48,2.63,2.63,0,0,1,2.76-2.48Z" transform="translate(-897.06 -520.52)"/><path class="cls-2" d="M997.69,529.41a2.49,2.49,0,1,1-2.76,2.48,2.63,2.63,0,0,1,2.76-2.48Z" transform="translate(-897.06 -520.52)"/><path class="cls-2" d="M1005.85,529.41a2.49,2.49,0,1,1-2.76,2.48,2.63,2.63,0,0,1,2.76-2.48Z" transform="translate(-897.06 -520.52)"/><path class="cls-2" d="M1010.63,538.39V536h1.09a1.38,1.38,0,0,1,.46.06.54.54,0,0,1,.26.22.8.8,0,0,1,.09.39.75.75,0,0,1-.07.35.61.61,0,0,1-.21.24.73.73,0,0,1-.23.09.52.52,0,0,1,.17.09.54.54,0,0,1,.11.13l.09.15.31.7H1012l-.35-.74a.44.44,0,0,0-.12-.19.28.28,0,0,0-.16-.05h-.05v1Zm.66-1.44h.27l.17,0a.18.18,0,0,0,.11-.08.23.23,0,0,0,0-.14.21.21,0,0,0-.07-.18.35.35,0,0,0-.24-.06h-.28V537Z" transform="translate(-897.06 -520.52)"/><path class="cls-2" d="M1011.57,534.84a2.31,2.31,0,1,1-2.56,2.3,2.44,2.44,0,0,1,2.56-2.3Zm0,.63a1.67,1.67,0,1,1-1.85,1.67,1.77,1.77,0,0,1,1.85-1.67Z" transform="translate(-897.06 -520.52)"/></svg>