<svg id="katman_1" data-name="katman 1" xmlns="http://www.w3.org/2000/svg" viewBox="0 0 125 40"><defs><style>.cls-1{fill:#ffed00;}</style></defs><rect class="cls-1" width="125" height="40"/><path d="M1022.2,322.45l.61-3.37,1.11-1.11,1.75,4.48H1029l-2.78-6.14,4.23-4.32h-3.61l-2.56,3.18c-.28.36-.58.78-.88,1.18h-.05l.85-4.66h-2.91l-1.94,10.76Zm11.6.23h0a4,4,0,0,1-4.24-4.33c0-3.61,2.39-6.6,5.94-6.6a4.07,4.07,0,0,1,4.23,4.31c0,3.82-2.49,6.62-5.92,6.62Zm.35-2.36h0c1.59,0,2.5-2.45,2.5-4.22,0-1-.41-2-1.57-2-1.69,0-2.54,2.57-2.54,4.19,0,1.21.6,2,1.59,2Zm9,2.13.7-3.9c.36-2.06,1.26-3.78,3.1-3.78a3.17,3.17,0,0,1,.46,0l.57-3-.55,0a3.69,3.69,0,0,0-3.16,2.39h-.08c.08-.74.14-1.44.18-2.15h-2.53c-.09.89-.23,2.65-.5,4.22l-1.14,6.24Zm7.18,0h-2.83l1.25-7.07c.24-1.32.38-2.45.5-3.39h2.53l-.19,1.7h0a4,4,0,0,1,3.39-1.94,2.18,2.18,0,0,1,2.36,2,4.08,4.08,0,0,1,3.44-2c1.53,0,2.43,1.05,2.43,2.82a15.48,15.48,0,0,1-.18,1.79l-1.07,6.09h-2.85l1-5.72a7.59,7.59,0,0,0,.14-1.26c0-.73-.32-1.25-1-1.25-1,0-2,1.38-2.35,3.5l-.83,4.73h-2.83l1-5.76a7.21,7.21,0,0,0,.13-1.17c0-.73-.24-1.3-1-1.3-1,0-2,1.46-2.38,3.52l-.83,4.71Zm18.12.23c3.4,0,5.91-2.8,5.91-6.62a4.07,4.07,0,0,0-4.23-4.31c-3.55,0-5.94,3-5.94,6.6a4,4,0,0,0,4.22,4.33Zm.34-2.36c-1,0-1.59-.81-1.59-2,0-1.62.85-4.19,2.54-4.19,1.16,0,1.58,1,1.58,2,0,1.77-.92,4.22-2.51,4.22Zm9.05,2.13.7-3.9c.36-2.06,1.26-3.78,3.1-3.78a3.1,3.1,0,0,1,.45,0l.56-3-.53,0a3.69,3.69,0,0,0-3.16,2.39h-.08c.08-.74.15-1.44.18-2.15h-2.53c-.09.89-.23,2.65-.5,4.22l-1.14,6.24Zm13.42,0h-2.68c0-.6.08-1.33.13-2.08h0a3.81,3.81,0,0,1-3.37,2.31c-1.8,0-3-1.46-3-3.63,0-3.53,2.24-7.3,7.13-7.3a10.82,10.82,0,0,1,3.27.52l-1,5.47a29.1,29.1,0,0,0-.41,4.71Zm-2.3-5.87.41-2.41a3.28,3.28,0,0,0-.77-.1c-1.89,0-3.27,2.44-3.27,4.4,0,1,.38,1.72,1.2,1.72s2-1,2.43-3.61Zm6.89,5.87.81-4.65c.44-2.3,1.53-3.58,2.49-3.58.75,0,1,.52,1,1.28a10.52,10.52,0,0,1-.09,1.14l-1,5.81H1102l1.09-6.09a15.49,15.49,0,0,0,.17-1.74c0-1.82-1-2.87-2.57-2.87a4.21,4.21,0,0,0-3.49,2h0l.18-1.72h-2.57c-.13.94-.29,2.07-.54,3.39l-1.25,7.07h2.92" transform="translate(-983.96 -296.74)"/><path d="M995,311.8l-7.83-1.55a.47.47,0,0,0-.19.92c2.66.85,6.89,2.19,8.34,4.41l6.1,9.37a.76.76,0,0,0,.74.35h5.95a.68.68,0,0,0,.47-.15l1.83-1.29a.94.94,0,0,0,.3-1.27l-6.4-10c-.18-.26-.05-.43,0-.49l3.32-2.47a.28.28,0,0,1,.19-.07h.88a.31.31,0,0,1,.19.55l-3.08,2.27a.35.35,0,0,0-.09.48l5.8,9a.85.85,0,0,0,1.17.25l1.92-1.41a.93.93,0,0,0,.14-1.18l-3.77-5.85c-.34-.53,0-.71.24-.93l5.28-3.89c.67-.48.6-1.55-.48-1.55H1005a1,1,0,0,0-.6.25l-4.76,3.53a1.06,1.06,0,0,0-.22,1.62l5.11,7.81a.59.59,0,0,1-.94.71l-5-7.74c-.94-1.49-2-1.36-3.55-1.66Zm.81.62a.85.85,0,0,1,.83.88.83.83,0,1,1-.83-.88" transform="translate(-983.96 -296.74)"/><path d="M1019.3,336.74V336c0-2.65,1.65-3.59,3.92-3.61H1109v4.38H1019.3" transform="translate(-983.96 -296.74)"/></svg>