<svg id="Layer_1" data-name="Layer 1" xmlns="http://www.w3.org/2000/svg" viewBox="0 0 125 40"><defs><style>.cls-1{fill:#312783;}.cls-1,.cls-2,.cls-3,.cls-4{fill-rule:evenodd;}.cls-2{fill:#fff;}.cls-3{fill:#ffed00;}.cls-4{fill:#1d1d1b;}</style></defs><polygon class="cls-1" points="2.55 12.59 125 12.59 125 34.09 2.55 34.09 2.55 12.59 2.55 12.59 2.55 12.59"/><path class="cls-2" d="M259.65,426.73l3.34-9.81h4.74c1.2,0,1.76.56,1.66,1.68h0l-.26,3.28,3.13-5h6.42l-3.42,9.81h-4.09l2.33-6.64-4.37,6.64h-3.42L266,420l-2.38,6.76Z" transform="translate(-233 -399.5)"/><polygon class="cls-2" points="44.73 27.23 48.16 17.42 52.64 17.42 49.18 27.23 44.73 27.23 44.73 27.23 44.73 27.23"/><polygon class="cls-2" points="66.88 17.42 63.36 27.23 67.65 27.23 68.89 23.79 71.12 23.83 69.91 27.23 74.2 27.23 77.55 17.42 73.21 17.42 71.97 20.8 69.88 20.84 71.12 17.42 66.88 17.42 66.88 17.42 66.88 17.42"/><polygon class="cls-2" points="80.04 17.42 89.36 17.42 88.5 19.96 83.49 19.96 83.07 20.97 88.14 21 87.27 23.53 82.22 23.56 81.84 24.42 86.98 24.39 86.01 27.23 76.64 27.23 80.04 17.42 80.04 17.42 80.04 17.42"/><polygon class="cls-2" points="91.66 17.42 88.21 27.23 96.83 27.23 98.21 23.79 93.75 23.83 96.02 17.42 91.66 17.42 91.66 17.42 91.66 17.42"/><polygon class="cls-2" points="98.35 27.23 101.7 17.42 106.19 17.42 102.72 27.23 98.35 27.23 98.35 27.23 98.35 27.23"/><path class="cls-2" d="M338.21,426.73l3.38-9.81h5c.95,0,1.56.49,1.53,1.38h0l-.19,4.87,2.26-6.25h3.71l-3.38,9.81h-6.33l.25-6.78-2.35,6.78Z" transform="translate(-233 -399.5)"/><path class="cls-2" d="M295.51,423.4l-1.16,3h0a19.48,19.48,0,0,1-3.28.41,7.23,7.23,0,0,1-4.5-1.27,3.32,3.32,0,0,1-1-2,4.9,4.9,0,0,1,.18-1.56c1.14-3.21,4-4.87,8.9-5.28a8,8,0,0,1,3.05.55h0l-1.29,3.22h0a2,2,0,0,0-1.67-.93,5.45,5.45,0,0,0-1.07.06c-2,.45-2.86,1.36-3,2.38a2.37,2.37,0,0,0,0,.84c.24.86,1.91,1.09,2.26,1.07a6,6,0,0,0,2.54-.5Z" transform="translate(-233 -399.5)"/><polygon class="cls-3" points="2.55 30.19 101.77 30.19 101.21 31.53 2.55 31.53 2.55 30.19 2.55 30.19 2.55 30.19"/><path class="cls-2" d="M247.72,399.72c.87,0,1,.34,1.19.75,1.18.16,1.62,1,1.74,2.25,1.07,1.38,1,2.44.47,3.35a8.37,8.37,0,0,1,3.34,1.34,2.23,2.23,0,0,1,1.28,2.58,3.68,3.68,0,0,1,.71,3.39h-.05l.05.05a3.13,3.13,0,0,1,.73,1.86c1.14.52,1.59,1.52,1,3.23.24.1.49.23.73.34,2.23,2.23,1.51,3.84-.56,3.47-.79.5-1.5.84-1.79-.07l-.41-.75c-.53-.18-.61-.63-.29-1.31a3.33,3.33,0,0,1-1.78-.83,5.07,5.07,0,0,1-.58,2.4,2.76,2.76,0,0,1-.79,3.05c0,.55,0,1.11,0,1.66a2.39,2.39,0,0,1-.46,3c.05,1.5-.29,2.66-1.48,3.11.14.38.26.77.37,1.15.62.46,1.23.95,1.84,1.41.1.41.22.84.34,1.27,0,.77-.63,1.35-1.89,1.74l-2-.13c-.23-.3-.63-.6-.86-.91s-.65-.89-1-1.34a2.67,2.67,0,0,1-.17-3.49c-1.09-.42-1.35-1.88-1.21-3.83-.14-.25-.19-.67-.32-.9-.05.09-.19.36-.24.47a4.27,4.27,0,0,1-1.43,3.47c-.46,1.72-1.24,2.29-2.18,2.35a2.13,2.13,0,0,0-.43,1.82,7.71,7.71,0,0,1,.35,2.31c-.41,2.65-5.69,1.4-5.38-1.22.25-1.39,1.89-2.31,2.23-3.77a3,3,0,0,1-.36-4.18,3.83,3.83,0,0,1,1.56-4,4.37,4.37,0,0,1,.58-4c-.29-1.56-.08-2.53.62-2.9a3.92,3.92,0,0,1-.17-2.35c-.09-.32-.16-.66-.23-1h-.25a2.68,2.68,0,0,1-2-1.55c-1.29-.11-2.19-1-2.72-2.65a3.12,3.12,0,0,1-1.19-2.35,2.21,2.21,0,0,1,.17-2.45,1.88,1.88,0,0,1-1.11-1.54c-.34-.14-.46-1.38-.44-2.85-.27-.11-.36-.41-.24-.91l.34-.36.41-.43a.88.88,0,0,1,1.07.22c.89-.11,1.3.43,1.62,1.05.7-.46,1.33-.46,1.8.61a1.84,1.84,0,0,1-.29.88,2.74,2.74,0,0,1,.46,1.81c.39.32,1,.89,1.06,1.41a5.06,5.06,0,0,1,1.21.95,3.42,3.42,0,0,1,1.87.29,3.83,3.83,0,0,1,1.84-.42,2.63,2.63,0,0,1,.13-2.79,2.92,2.92,0,0,1,1.67-3.13,1.52,1.52,0,0,1,1.48-.75Z" transform="translate(-233 -399.5)"/><path class="cls-4" d="M258.92,418.86c-.24-.11-.49-.24-.73-.34a2.57,2.57,0,0,0-.21-2.65,1.82,1.82,0,0,0-.41-.36l-.39-.22a3.8,3.8,0,0,0-.06-.5,2.89,2.89,0,0,0-.58-1.25l-.09-.11s0,0-.05,0h.05a3.67,3.67,0,0,0,.09-.43,4.11,4.11,0,0,0,0-1.31,2.9,2.9,0,0,0-.14-.48,4,4,0,0,0-.54-1,1,1,0,0,1-.12-.16,2.23,2.23,0,0,0-1.28-2.58s0,0,0,0-.17-.11-.25-.18a8.8,8.8,0,0,0-3.07-1.15,2.57,2.57,0,0,0-.23-3c-.09-.11-.16-.22-.24-.33-.12-1.21-.56-2.09-1.74-2.25a.06.06,0,0,1,0,0,.93.93,0,0,0-.65-.68,1.72,1.72,0,0,0-.53,0,2.17,2.17,0,0,0-.53,0,1.45,1.45,0,0,0-.95.7,2.92,2.92,0,0,0-1.67,3.13,1.47,1.47,0,0,1-.68,2.83,3.27,3.27,0,0,0-1.29.38,3.42,3.42,0,0,0-1.87-.29,11.76,11.76,0,0,0-1-.84.7.7,0,0,0-.2-.12c-.05-.52-.67-1.08-1.06-1.4a2.74,2.74,0,0,0-.46-1.81,1.84,1.84,0,0,0,.29-.88,1.73,1.73,0,0,0-.54-.75c-.38-.27-.8-.16-1.26.14a2.09,2.09,0,0,0-.72-.88,1.17,1.17,0,0,0-.9-.17.88.88,0,0,0-1.07-.22l-.41.43-.34.36c-.12.5,0,.8.24.91,0,1.47,0,2.56.43,2.87a1.87,1.87,0,0,0,1.12,1.52,2.21,2.21,0,0,0-.17,2.45,3.15,3.15,0,0,0,1.1,2.29l.09.06a3.66,3.66,0,0,0,1.89,2.45,2.47,2.47,0,0,0,.83.2,3.55,3.55,0,0,0,1.14,1.29,2.19,2.19,0,0,0,.82.26h.25c.07.32.14.66.23,1a3.92,3.92,0,0,0,.17,2.35c-.7.37-.91,1.34-.62,2.9a4.37,4.37,0,0,0-.58,4l-.27.22a3.79,3.79,0,0,0-1.29,3.79,3,3,0,0,0,.36,4.18,4.56,4.56,0,0,1-1,1.77,4.58,4.58,0,0,0-1.19,2,2.2,2.2,0,0,0,1.19,2.1,4.11,4.11,0,0,0,2,.59c1.07,0,2-.39,2.22-1.47a7.71,7.71,0,0,0-.35-2.31,2.17,2.17,0,0,1,.43-1.82h0v0h0a2.07,2.07,0,0,0,1.85-1.44c.1-.26.21-.55.31-.89a4.27,4.27,0,0,0,1.43-3.47c.05-.11.19-.4.24-.49.13.24.13.72.27,1-.36,1.83.1,3.19,1.05,3.69l.21.09h0l0,0h0c-.07.12-.14.23-.19.34a2.53,2.53,0,0,0,0,2.61,3.85,3.85,0,0,0,.38.52c.24.3.46.61.68.91.1.15.2.29.31.43l.34.47a1.27,1.27,0,0,0,.52.44,3.68,3.68,0,0,0,1.47.13,2.26,2.26,0,0,1,.52,0c1.26-.39,1.88-1,1.89-1.74a2,2,0,0,0-.34-1.27c-.61-.46-1.22-.95-1.84-1.41-.06-.25-.15-.5-.23-.77l-.14-.38.14-.05c1.07-.49,1.39-1.61,1.34-3.06a2.39,2.39,0,0,0,.46-3c0-.55,0-1.11,0-1.66a2.76,2.76,0,0,0,.79-3.05,5.07,5.07,0,0,0,.58-2.4.87.87,0,0,0,.1.08,2.07,2.07,0,0,0,.25.19,3,3,0,0,0,1.42.54h0v0h0v0c-.24.51-.24.86,0,1.1a1,1,0,0,0,.3.18,3.62,3.62,0,0,1,.24.43l.14.25s0,.05,0,.07c.12.37.31.53.55.57a1.1,1.1,0,0,0,.45-.07l.41-.2c.14-.07.26-.16.38-.23,1.09.2,1.8-.16,1.92-.84h0V421h0a4.33,4.33,0,0,0-1.36-2.18ZM256.4,415a.8.8,0,0,1,0,.23h0v.09h0a.19.19,0,0,1,0,.09c0,.12-.12.23-.19.36a2.64,2.64,0,0,1-.22.32.75.75,0,0,1-.13.18c-.07.09-.16.18-.24.27s-.16.12-.24.19-.26.16-.39.24a1.34,1.34,0,0,0-.24.09,3,3,0,0,1-.31,0h-.12a.25.25,0,0,1-.13,0h0v-.23l0-.54h0l.07-.08,0-.05.22-.34.05-.07.21-.45.13-.48,0-.15h0l.19-.05h0l.17-.11h0a2.07,2.07,0,0,0,.25-.19,1.73,1.73,0,0,0,.23-.24,1.57,1.57,0,0,1,.15-.19h0l.08.09h0a2.06,2.06,0,0,1,.46,1Zm-1.17-4c.05-.08.08-.17.13-.25a3,3,0,0,1,.29.5,2.23,2.23,0,0,1,.12.34.92.92,0,0,1,.09.25,3.53,3.53,0,0,1,0,.46,3.64,3.64,0,0,1-.41,1.24h0l-.09.12h0a1.77,1.77,0,0,1-.17.2,2.09,2.09,0,0,1-.29.23h0v-.32l-.08-.55-.17-.61-.21-.47V412l.09-.18.08-.29.07,0,.17-.1h0a1.36,1.36,0,0,0,.24-.24h0l.14-.17ZM254,408a.66.66,0,0,0,.22.12.2.2,0,0,0,.1.07l.15.11a1.31,1.31,0,0,1,.62,1,4.82,4.82,0,0,1-.05.77h0l0,0h0c0,.14,0,.28-.07.41a1.42,1.42,0,0,0-.12.25l-.1.12h0l0-.35-.1-.49-.12-.34-.06-.18-.19-.39-.07-.13-.27-.41,0-.1,0-.09v-.11l0-.11h0a.74.74,0,0,0,0-.23l.14.09Zm-.43,1,.14.23.24.47.15.43.1.41,0,.27V411l0,.3-.1.34-.15.32-.19.31-.25.28-.31.25-.34.25-.37.24-.41.19-.45.18-.47.16-.22.06-.28.07-.51.11-.52.09-.55,0-.13,0-.4,0H248l-.53,0-.24,0-.29,0-.51-.07-.49-.11-.48-.14-.44-.16-.41-.18-.37-.24-.31-.21,0,0-.14-.12.16-.24v0l.14-.23.12-.25.1-.27.08-.27.06-.28.05-.27v-.59l0-.29v0l.17.07.31.09.34.09.34.07.34.07.34.05.71.09h.22l.51,0h.74l.46,0,.25,0,.72-.07.34-.05.34-.06.32-.09h0l.3-.07.31-.1.31-.09.29-.13.27-.12.25-.15.24-.14.24-.16.2-.18.19-.2,0-.05Zm-10.18-1.51a1,1,0,0,1,.53-.28,2.15,2.15,0,0,1,1.6.18c.14.1.29,0,.43,0h0l-.24-.5.27-.41-.75-.57h0c-.18-.48-.51-1-.3-1.52a2.68,2.68,0,0,1,.44-.74h0l.58-.09-.07-.18-.44-.28h0a1.77,1.77,0,0,1,.39-1.42,3,3,0,0,1,.64-.48h0l.28-.14h0a2.08,2.08,0,0,1,.44-.5s0,0,0,0a.6.6,0,0,1,1,.41h0l.27.09h0a1.52,1.52,0,0,1,.38.11l.49.26c.51.4.56,1.37.56,1.94,1,.68.87,1.47.41,2.42h0l-.39.35,0,.45-.31.57h0a1.89,1.89,0,0,1,1.25-.32,4.11,4.11,0,0,1,.73.13,7.73,7.73,0,0,1,1.55.55,4,4,0,0,0,.17.52.46.46,0,0,1,0,.31,1.72,1.72,0,0,1-.25.35h0l-.16.15-.17.16-.2.12-.21.15-.23.12-.26.11-.25.11-.29.1-.29.09-.17,0-.14,0-.31.07-.64.1-.68.08h-.22l-.48,0h-.7l-.53,0H247l-.69-.09-.67-.11-.3-.07-.33-.09-.29-.09-.29-.11-.15-.05-.07-.22-.1-.28-.12-.29-.12-.25,0,0-.16-.27-.18-.26-.21-.25-.1-.13h0a.42.42,0,0,0,.15,0Zm-7.57-1.93,0,0-.51-.62h0c-.29-.17-.66-.31-.76-.65a3.12,3.12,0,0,1-.44-1,2.31,2.31,0,0,1,0-1.4c.1-.32.27,0,.37.51.24,1.07.56,1.5.6,1.21s0-.07,0-.34-.72-2-.94-1.93-.26-.18-.29-.63c.29-.1.77.59,1.63,2,0,.08.16,0,.23,0a16.74,16.74,0,0,0-1.37-2.35h0l.16,0h0c.56.22,1,1,1.32,1.78a1,1,0,0,1,.14.28c0,.07.24.09.22,0a4.25,4.25,0,0,0-.36-.93,6.74,6.74,0,0,0-.51-.89.51.51,0,0,1,.51.25,1.7,1.7,0,0,1,.17.23,1.37,1.37,0,0,1,.29.86,4.66,4.66,0,0,1,.12,1.72c.26,0,.41-.22.56-.95a1.34,1.34,0,0,1,.16-1.29c.2-.09.24-.16.39,0h0l.08.14h0a3.21,3.21,0,0,0-.08,1.11c.08.48.19.45.27.93a20,20,0,0,0,0,2.6s0,0,.07,0c.17-.22.54-1.27.54-1.18.36.28.12.05.39.43a1.06,1.06,0,0,1,.11.21h0l.05.63,0,0h0a2.13,2.13,0,0,1-.15.49h0l-.12.28-.15.26-.16.21-.17.18-.17.14-.15.09-.05,0-.22.09-.22.05-.26,0h-.27l-.29,0h0c-.16,0-.31-.08-.46-.11h0l-.21-.07-.13-.06,0,0h0v-.07a1.15,1.15,0,0,1-.08-1.66,2,2,0,0,0,.23.21c.51.4.79.36,1.08.15a1.41,1.41,0,0,1-1.06-.9Zm.61,4.39-.29-.25h0a1.8,1.8,0,0,1-.34-.49,4.79,4.79,0,0,1-.17-.5.61.61,0,0,1-.06-.32.79.79,0,0,1,.23.09h.06l.35.11.34.07.34,0,.33,0,.3-.06.26-.09h0l.27-.12.12-.09.12-.09.24-.21.21-.26.17-.26.17-.33.13-.34h0c0-.14.09-.26.12-.41h0l.07,0h0c.12.08.22.17.32.25a.65.65,0,0,0,.16.13h0v.13l.05.48v.45l0,.21,0,.2,0,.18-.05.18-.05.18,0,.05,0,.11-.07.14-.08.14-.09.13-.1.12-.1.11-.12.09-.12.11-.14.07-.13.07-.16.07-.15,0-.17.05-.19,0-.19,0h-.4l-.21,0-.24,0-.22,0-.25-.06-.16,0Zm2.57,2.31h0l-.31-.11a2.2,2.2,0,0,1-.9-.31,2.55,2.55,0,0,1-1.09-1.28h.05l.26,0,.25,0h.7l.22,0,.22,0,.19-.05.2-.06.19-.07.17-.09.17-.1.15-.13.16-.13.13-.14.12-.14.12-.16.1-.18.09-.2.08-.18.07-.21,0-.22.05-.21,0-.23,0-.24v-.55h0l.55,0h0l.23.57.19.54.14.5,0,.23,0,.24,0,.21,0,.22,0,.19v.2l0,.18-.06.18-.05.16-.06.16-.07.14-.1.15-.11.14-.12.13-.13.1-.16.13-.15.09-.19.1-.2.09L240,412l-.24.08h-.07l-.18,0-.28.07-.29,0Zm.75.91-.29-.45h0l.22,0,.07,0,.21-.06.25-.08.26-.09.22-.11.22-.11.2-.12.19-.15.15-.14.16-.16.13-.18.12-.18.11-.2.08-.19.07-.2,0-.23,0-.22,0-.23,0-.23,0-.25,0-.26,0-.25-.05-.26-.07-.27-.08-.29-.09-.27-.22-.59,0-.05h0a3,3,0,0,1,.63.14h0l.35.18.18.16.2.23.17.24.17.23.15.23.12.25.1.25.11.25.06.25.06.27v0l0,.21V411l0,.25,0,.23-.07.23-.08.22-.1.21-.14.22-.14.2-.15.19-.19.18-.18.16-.23.16-.22.15-.25.12-.27.11-.29.11h-.07v-.11c-1,.09-1.36,0-1.74-.43Zm7.87,9.56-.21.18-.19.14v0l-.22.13-.24.12-.24.11-.26.09-.27.05-.27,0-.27,0h-.29l-.27,0-.29,0-.29-.07-.29-.09-.09,0-.2-.09-.27-.12-.29-.16-.26-.18-.27-.2-.24-.23-.25-.25-.23-.27-.22-.31-.18-.32-.14-.23h0a3.3,3.3,0,0,1,.14-2.24h0l.2-.14.22.29.34.32.36.3.41.29.44.25.44.2h0l.49.2.51.18.54.14.55.13.56.09.56.05.05,0,.53,0h.65l0,.08-.07.31,0,.07-.07.2-.12.25-.15.23-.15.22-.17.21Zm0,2.45c.13.09.29.16.44.25l.17.08a2,2,0,0,0,.29.12h0l.3.09h.06l.27.07.32,0h.34l.32,0,.35-.07.34-.07h0s0,0,0,0l.47-.18a3.3,3.3,0,0,0,.51-.29,1.11,1.11,0,0,0,.16-.07c0,.38,0,.75,0,1.13h0l-.09.13-.15.17-.15.17-.17.14-.16.12-.18.13-.17.11-.05,0-.12.07-.19.08-.19.07-.17,0-.18.05-.19,0-.17,0h-.36l-.17,0-.19,0h-.06l-.09,0-.17,0-.15-.07-.16-.08-.08-.05-.07,0-.14-.1-.13-.13-.14-.12-.12-.15-.12-.16-.1-.16-.1-.18-.09-.19-.05-.17v-.05l-.05-.14h0l0,0a.09.09,0,0,1,0-.05l.16-.27.12-.25.17.12Zm-6.47,12.5a1.76,1.76,0,0,1-1.45.57,4.23,4.23,0,0,1-1.78-.68,3.56,3.56,0,0,0,1.78,1,3.94,3.94,0,0,0,.85,0,1.52,1.52,0,0,1-.69.19l-.16,0a2.88,2.88,0,0,1-.41,0,3,3,0,0,1-1.56-.85,2.56,2.56,0,0,1-.39-.58,1,1,0,0,1-.07-.53,2.65,2.65,0,0,1,.46-.88,1.84,1.84,0,0,1,.27-.34,9.86,9.86,0,0,0,1.09-1.63,6.65,6.65,0,0,0,.34-.65h0l0-.07v0h0l.24.14a3.27,3.27,0,0,0,.51.22,4.71,4.71,0,0,0,.62.16l.37,0a4.71,4.71,0,0,0-.34,1.84c.07.32.12.59.2.91s.33.83.09,1Zm.42-4.33h-.17a2.93,2.93,0,0,1-.88-.13.71.71,0,0,1-.22-.07,2.5,2.5,0,0,1-.5-.23l-.1-.07c-.1-.06-.18-.15-.29-.22h0l-.1-.12-.2-.22h0a2.3,2.3,0,0,1-.65-1.54,2.76,2.76,0,0,1,.46-1.32h0l0-.06,0,0,.19.39.22.36.12.16.12.15.08.11.05,0,.14.14.14.13.15.12.15.09.16.11.17.09.17.07.18.07.19.06.37.09.4,0,.42,0,.44,0,.46-.07h0a.18.18,0,0,0,.09,0,2.28,2.28,0,0,1-1.81,1.85Zm2.49-2.74a.62.62,0,0,1-.19.12,1.86,1.86,0,0,0-.42.22l-.24.05h0l-.43.06H242l-.34,0-.34-.07-.31-.11-.27-.14-.27-.16-.24-.2-.24-.25-.2-.27-.09-.12-.1-.18-.17-.36-.15-.38-.09-.18-.1-.21h0a3.18,3.18,0,0,1,.26-1.7h0l.35-.43.17-.2,0,.27.05.27,0,.25.09.25.1.23.1.23.14.22.13.2.16.18.17.17.17.15.18.14.21.13.2.1.22.09.23.09.23.06.24,0,.26,0h.49l.26,0,.25-.07h0l.22-.07.26-.09.25-.11.28-.14h0a2.58,2.58,0,0,1-.82,2Zm.83-2.69c-.08.07-.17.16-.25.22h0l-.24.12-.24.11-.22.09-.07,0-.15,0-.24.06-.22,0h-.63l-.2,0-.21,0-.19-.07-.17-.07-.18-.09-.16-.11-.17-.1-.13-.15-.14-.12-.13-.16-.12-.16-.11-.18-.08-.18-.09-.22-.06-.19-.06-.22,0-.23,0-.25v-.54l.36-.27.05.06.29.33.31.31.3.27.34.21.34.2.38.16.37.11.41.09.34,0h.5l.44,0,.44-.07.22-.06h0a3,3,0,0,1-.58,1.11Zm1.28-2a3.39,3.39,0,0,1-.34.23h0l-.09,0-.2.09-.17,0-.43.09-.4.05-.4,0-.27,0h-.1l-.36-.05-.34-.09-.32-.11-.31-.16-.3-.18-.29-.22-.28-.25-.25-.28-.26-.33-.23-.35-.12-.18-.16-.33v0h0a3.9,3.9,0,0,1,.12-1.66,2.81,2.81,0,0,1,.34-.72h0v0l.22.36.24.32.26.3.25.27.29.25.29.24.29.19.31.18.32.14.31.13.08,0,.24.07.32.09.33,0,.32,0h.32l.33,0,.3,0,.31-.07.29-.11.29-.11.25-.14h0l0,0h0a.23.23,0,0,0,0,.11,1.36,1.36,0,0,1-.05.36v.05a3.65,3.65,0,0,1-.13.5c0,.11-.07.2-.12.31a2.39,2.39,0,0,1-.21.34,2.35,2.35,0,0,1-.23.32c-.11.09-.21.18-.31.25Zm4.7,8.65c.51.34,1.07.63,1.56,1a1,1,0,0,1,.14.5c-.09.49-1,.77-1.7.85a2.13,2.13,0,0,1-.67,0c-.1.2.22.25.67.25a4.17,4.17,0,0,0,1.45-.25,2.74,2.74,0,0,1-1,.54,3,3,0,0,0-.44,0,2.47,2.47,0,0,1-1.14-.15c-.21-.21-.43-.41-.63-.64s-.16-.22-.22-.32c-.23-.29-.43-.58-.65-.88l-.12-.15a1.54,1.54,0,0,1-.56-1.21,2.8,2.8,0,0,1,.36-1.42h0l.1-.14h0l.22.07.29.06.36,0,.13,0c.33,0,.63,0,.95-.07,0,.07.06.16.07.21-1,.16-1,.63-.64.7.18,0,.4-.12.83-.2a1.69,1.69,0,0,0,.12.4c-.15,0-1.12.45-.83.75,0,0,.93-.41,1-.27l.38.27Zm0-3a5.76,5.76,0,0,1-1,.61,6.52,6.52,0,0,1-.88.07l-.15,0a2.4,2.4,0,0,1-.52-.07h0l0,0h0a.42.42,0,0,1-.15,0,1.33,1.33,0,0,1-.72-.48,1.12,1.12,0,0,1-.34-.38,1.82,1.82,0,0,1-.15-.41,4.94,4.94,0,0,1-.15-1.43h0l0,0,.27.25.05.06.31.25.34.21.32.18h0l.31.13.17,0,.17,0h0l.17,0h.17l.19,0,.17,0,.36,0,.18,0,.36-.11.36-.16h0l.35-.2.28-.18h0a2,2,0,0,1-.63,1.65Zm.9-2.61-.29.32h0v0a3.39,3.39,0,0,1-.34.23h0l-.27.16-.07,0-.31.16-.32.11-.31.07-.3,0h-.29l-.29,0-.1,0-.19-.05-.29-.11-.17-.09-.12-.05-.27-.2-.29-.22-.29-.27-.09-.1-.18-.22-.11-.12h0a3.19,3.19,0,0,1-.32-2.31c0-.06.1-.09.15-.15h0l.06.11.1.23.1.22.14.21.06.09.07.09.14.18.17.16.15.15.19.12.17.11.17.09,0,0,.2.07.19.07.2,0h0l.17,0,.22,0h.42l.21,0,.22,0,.2,0,.22-.05.21-.09.12-.06.1,0,.2-.11.19-.13.2-.14.19-.16.19-.16.15-.14h0a2.07,2.07,0,0,1,.21.73,1.94,1.94,0,0,1-.53,1.22Zm.2-4.48a4.82,4.82,0,0,1-.51.38,3.42,3.42,0,0,1-.47.23l-.12,0-.34.1-.45.09-.44,0-.41,0-.35-.08h-.07l-.39-.17a.42.42,0,0,1-.19-.09l-.22-.1-.39-.27a.07.07,0,0,1,0-.05,5.07,5.07,0,0,0,.09-.54,5.47,5.47,0,0,0,0-.7h0l.17-.14.16-.18h0l.15.07.15.09h0l.29.12.21.06.1,0,.32.06.32,0,.33,0,.32,0,.34-.05.26-.07.08,0,.34-.12.36-.16.34-.2.36-.23.34-.27h0l.08-.07a2.45,2.45,0,0,1-.8,2.27Zm1.36-4.76a3.61,3.61,0,0,1-.23,1.14c-.09.2-.17.4-.26.58h0l-.14.12h0c-.15.15-.32.29-.49.43a5.72,5.72,0,0,1-.48.32,5.22,5.22,0,0,1-.47.26,2.47,2.47,0,0,1-.39.16s0,0-.07,0l-.44.11-.43.05h-.42l-.41-.08-.22-.07-.17-.07a3,3,0,0,1-.33-.14h0l.1-.16.14-.31.12-.32.08-.34.06-.23.51-.06L250,421l.55-.11.39-.1.12,0,.47-.18.48-.21.42-.24.4-.28.35-.31.22-.25v.38Zm.29-2.35-.06.43-.12.4-.19.36-.22.34-.27.3-.31.27-.36.25-.39.21-.41.2-.42.14,0,0-.47.13-.51.1-.51.08-.46.05h-.07l-.55,0h-.54l-.55,0-.54-.07-.53-.09-.53-.11-.51-.14-.49-.16-.46-.2-.24-.11-.2-.08-.41-.24-.38-.25-.34-.27-.28-.3-.19-.22,0,0-.36-.83h0a3.36,3.36,0,0,1-.06-1.48h0l.08.11.46.37.48.34.53.31.54.28.1,0,.46.2.6.19.59.18.63.13.63.1.39,0,.24,0h.82l.44,0,.21,0h.4l.62-.08.59-.08.38-.09.2-.06.55-.16.52-.2.5-.23.46-.25.4-.3.12-.11,0,.09,0,.46Zm-.1-1.18-.32.31-.38.26-.42.24-.44.21-.5.2-.51.14-.08,0-.46.11-.58.09-.58.07-.37,0h-.82l-.61,0-.28,0-.34,0-.59-.09-.6-.15-.58-.16-.56-.18-.53-.23-.1-.05-.42-.2-.48-.29-.44-.32-.43-.36-.25-.26h0a6.2,6.2,0,0,1-.34-1.19h0l.13,0,.33-.11.3-.12.29-.15.27-.16.24-.18.22-.19.05-.06.19.18.34.23,0,0,.42.23.44.22.48.18.51.14.53.12.53.08.35,0,.21,0,.54,0h.56l.4,0,.17,0,.56-.05.56-.08.53-.1.17-.06.35-.09.5-.16.47-.19.46-.22.41-.25.39-.29.34-.3.28-.31.06.18,0,.06.12.46.08.5v.47l0,.43-.12.39,0,.09-.14.29-.22.34-.29.32Zm2.47,3.08-.15,0h-.17l-.29-.07-.05,0h0a2.86,2.86,0,0,1-.69-.41h0l-.22-.17-.25-.19-.22-.16.1-.34.05-.29h0l.07,0h.34l.32-.06.33-.1.3-.16.31-.22.07-.05a1.26,1.26,0,0,1,.2-.2l.26-.3c0-.06.06-.09.08-.13a1.15,1.15,0,0,0,.14-.2l.1-.16a.6.6,0,0,0,.08-.16,2.43,2.43,0,0,1,.4.18,1.3,1.3,0,0,1,.45.48s0,0,0,.06a1.78,1.78,0,0,1,0,1.45s0,0,0,.05h0l0,.11,0,0-.22.27-.13.11-.12.11-.24.18-.22.1,0,0-.1.05-.14.06-.25.05Zm.53,1.51a.18.18,0,0,0-.05.07s-.06.05-.09.07-.14.05-.17,0,0-.18.09-.27a.17.17,0,0,1,.08-.07c.05,0,.1-.06.14,0s0,0,0,0,0,.12,0,.2Zm.64.51a.17.17,0,0,0-.06.06c-.12.05-.26,0-.29,0a.39.39,0,0,1,0-.45c.08-.08.2-.05.31,0a.58.58,0,0,0,.1.08.28.28,0,0,1,0,.35Zm.55.63a.65.65,0,0,1-.16.13c-.11.07-.23.09-.28,0s0-.28.15-.46.08-.09.13-.11.24-.11.31-.05,0,.28-.15.46Zm1.73-.39c-.29.52-.8.1-1.19-.24A.78.78,0,0,0,258,421l-.41-.31a1.31,1.31,0,0,1-.2-.28l-.25-.09a1.26,1.26,0,0,1-.58-.34.18.18,0,0,1,0-.27.84.84,0,0,1,.22-.14c.05,0,.2-.11.25-.13h0l.11-.07.05,0,.15-.1.14-.13.11-.12,0,0v0h0a1.35,1.35,0,0,1,.37.2,2.48,2.48,0,0,1,.51.39,4.2,4.2,0,0,1,1,1.47c-1.31-1.22-2.16-1.92,0,.52Z" transform="translate(-233 -399.5)"/><path class="cls-4" d="M249.25,404.94h-.35l-.65,0-1.06,0h0a.24.24,0,0,1-.29-.14,1.54,1.54,0,0,1-.36.62.52.52,0,0,0,.53-.16l.15.09a.13.13,0,0,0,.07,0,1,1,0,0,1,.65.45.45.45,0,0,0,.34.08.71.71,0,0,0,.34-.14.69.69,0,0,1,.31-.34,2.69,2.69,0,0,1,.64-.32c0-.09-.07-.16-.29-.22Zm-1,.7h0c-.22,0-.73-.36-.53-.37h.53l.51,0h0c.2,0-.29.39-.49.39Z" transform="translate(-233 -399.5)"/><path class="cls-4" d="M248.9,404.42c.42,0,.78-.57.78-1.25s-.36-1.25-.78-1.25a.73.73,0,0,0-.65.52,1.64,1.64,0,0,0-.15.73,1.78,1.78,0,0,0,.15.74.75.75,0,0,0,.65.51Zm0-2.13c.29,0,.51.42.51.92a1.23,1.23,0,0,1-.12.57,1.28,1.28,0,0,0,0-.21c0-.45-.18-.83-.4-.83s-.41.38-.41.83a1.22,1.22,0,0,0,0,.26,1.53,1.53,0,0,1-.14-.62c0-.5.23-.92.52-.92Z" transform="translate(-233 -399.5)"/><path class="cls-4" d="M247.16,404.42h0c.43,0,.75-.59.75-1.25s-.32-1.22-.75-1.25h0c-.44,0-.8.55-.8,1.25s.36,1.25.8,1.25Zm0-2.13h0c.28,0,.48.43.48.92a1.12,1.12,0,0,1-.12.57.65.65,0,0,0,0-.21c0-.43-.17-.79-.38-.83h0c-.22,0-.39.38-.39.83a1.18,1.18,0,0,0,0,.26,1.38,1.38,0,0,1-.14-.62c0-.5.22-.92.51-.92Z" transform="translate(-233 -399.5)"/><path class="cls-4" d="M240.11,435.15a2.23,2.23,0,0,0-.39-.13l-.35,0c-.12,0-.31,0-.33.16a.41.41,0,0,0,.24.37,1.21,1.21,0,0,0,.44.15,1.62,1.62,0,0,0,.31,0c.15,0,.36-.06.39-.2s-.17-.27-.31-.34Z" transform="translate(-233 -399.5)"/><path class="cls-4" d="M240.39,434.2a2.1,2.1,0,0,0-.67-.13l-.13,0a.4.4,0,0,0-.33.25c0,.13.14.24.26.29l.2.05a1.8,1.8,0,0,0,.6.06c.13,0,.34-.09.36-.24s-.17-.25-.29-.3Z" transform="translate(-233 -399.5)"/><path class="cls-4" d="M235.88,403.58a.45.45,0,0,0-.11,0s-.05,0-.08,0-.27,0-.32.07,0,.18.13.27.14,0,.19.05a.15.15,0,0,1,.08.11l.06,0c.11,0,.37.06.37-.07s-.19-.3-.32-.43Z" transform="translate(-233 -399.5)"/></svg>