<svg id="Layer_1" data-name="Layer 1" xmlns="http://www.w3.org/2000/svg" viewBox="0 0 125 40"><path d="M83,41.3V23.08h19.42v5h-9.2V29.8h8.36v4.66H93.24V36.4h9.44v4.94H83.07l0,0Zm0-24.84v-11A8.45,8.45,0,0,1,87.5,4.18H106V17.7H101.4V8.5H87.5c-2,0-3.67,1.1-3.67,2.44s1.65,2.44,3.67,2.44H99.85L96.76,17.7H87.5A8.64,8.64,0,0,1,83,16.46ZM104.3,39.79l3.33-5.11a27.41,27.41,0,0,0,4,1.43,13.06,13.06,0,0,0,3.31.47,4.52,4.52,0,0,0,1.69-.27c.41-.16.61-.39.61-.68,0-.53-1-.91-3.09-1.17-.66-.09-1.17-.17-1.54-.21a11.61,11.61,0,0,1-5-1.78,3.79,3.79,0,0,1-1.73-3.18q0-2.92,3.36-4.78a18.23,18.23,0,0,1,8.83-1.86,27.78,27.78,0,0,1,4.92.43,31.26,31.26,0,0,1,4.91,1.24l-3.2,4.78a16.28,16.28,0,0,0-3-1.06,11.77,11.77,0,0,0-3-.37,5,5,0,0,0-1.69.23c-.39.15-.59.37-.59.64,0,.52,1.45,1,4.36,1.35.46.08.82.12,1.08.16a10.14,10.14,0,0,1,4.72,1.74A3.84,3.84,0,0,1,128.32,35q0,3-3.49,4.95a18.5,18.5,0,0,1-9.08,1.94,32.65,32.65,0,0,1-5.73-.52,36.13,36.13,0,0,1-5.72-1.53ZM124,17.7h4.36V9.31c0-4.22-3.79-5.13-5.74-5.13H107.83V17.7h4.49V8.5h9.46A2.06,2.06,0,0,1,124,10.57V17.7ZM68.61,31.31a3.88,3.88,0,0,0,1.56-.41A1.47,1.47,0,0,0,71,29.59a1.49,1.49,0,0,0-.81-1.34,3.7,3.7,0,0,0-1.56-.45V23.08h.55c3.8,0,6.73.52,8.75,1.59a4.93,4.93,0,0,1,3,4.55,3.94,3.94,0,0,1-1.53,3.21A7.06,7.06,0,0,1,75.3,33.9L83,41.3V23.08h0V41.34H71.35l-2.74-3.22V31.31ZM83,5.42v11a6.57,6.57,0,0,1-3.29-5.52A6.53,6.53,0,0,1,83,5.42ZM68.61,17.7v-5l4.61,5Zm0-9.51v-4h5l-5,4Zm5.47-4h4.58V17.7H74.08V4.18ZM66.25,27.79v3.56h1.62c.28,0,.52,0,.74,0v6.81l-2.36-2.8v6H56V23.08H68.61V27.8H66.25ZM68.61,4.18v4l-2.39,1.94,2.39,2.59v5H66.9l-7-7.57,7.36-6ZM39.55,41.34V26.08l.38.54a10.71,10.71,0,0,1,.8,1.38.39.39,0,0,0,.05.13c.15-.29.4-.71.75-1.29.08-.1.11-.16.15-.21l2.41-3.55H55.94L45.83,33.27v8.07Zm0-23.64V13.38H46.2c2,0,3.66-1.1,3.66-2.44S48.22,8.5,46.2,8.5H39.55V4.18H46.2c4.27,0,7.78,3,7.78,6.76S50.47,17.7,46.2,17.7ZM55.23,1.84H59.8V17.7H55.23V1.84ZM39.55,4.18V8.5H32.93c-2,0-3.67,1.1-3.67,2.44s1.65,2.44,3.67,2.44h6.62V17.7H32.93c-4.28,0-7.77-3-7.77-6.76s3.49-6.76,7.77-6.76Zm0,21.9V41.34H35.29V33.26L25.54,23.08H37.47l2.08,3ZM9.24,41.34V29H3.42v-6H25.53v6H19.7v12.3ZM19.57,17.7h4.36V9.31c0-4.22-3.79-5.13-5.74-5.13H3.38V17.7H7.86V8.5h9.47a2.06,2.06,0,0,1,2.24,2.07V17.7Z" transform="translate(-3.38 -1.84)"/></svg>