<svg id="Layer_1" data-name="Layer 1" xmlns="http://www.w3.org/2000/svg" viewBox="0 0 125 40"><defs><style>.cls-1{fill:#e30613;}.cls-2{fill:#fff;fill-rule:evenodd;}</style></defs><rect class="cls-1" width="125" height="40"/><path class="cls-2" d="M371.54,238.09l-2.09,13.71s5.41.07,7.7,0,2.84-2.6,2.84-2.6,1.2-8.17,1.27-8.72a2.26,2.26,0,0,0-.69-1.8,1.85,1.85,0,0,0-1.43-.59ZM367.46,234h13.73s4,.29,4.65,4.21a6.76,6.76,0,0,1,.07,2.31c-.17,1.39-1.3,9.24-1.3,9.24a8.72,8.72,0,0,1-1,2.64,6.51,6.51,0,0,1-4.93,3.4,39.71,39.71,0,0,1-5,.08h-4.83l-1,6.92h-4.75Z" transform="translate(-350.95 -224.38)"/><path class="cls-2" d="M391.18,242.82s7.81,0,8.19,0,2.22-.91,2.25-2.42-.71-2.31-1.5-2.34-6.23,0-6.23,0a3.72,3.72,0,0,0-2.36,2.53,11.94,11.94,0,0,0-.35,2.23Zm1.78-8.76c1.2-.14,8.53,0,9,0a4.43,4.43,0,0,1,2.64,1.21,5.45,5.45,0,0,1,1.71,4.55,8.25,8.25,0,0,1-2.63,5.56,5.45,5.45,0,0,1-3.29,1.47c-4.21.11-9.76,0-9.76,0a18.2,18.2,0,0,0-.41,2.94c.1.44.45,1.87,1.58,2s13.14,0,13.14,0a6.68,6.68,0,0,0,2.7,4.07H390.12s-4.79-.33-4.65-6l1.37-9.67a9.8,9.8,0,0,1,1.91-3.7C390.74,234.39,391.77,234.21,393,234.06Z" transform="translate(-350.95 -224.38)"/><path class="cls-2" d="M409.12,227.14h4.72l-1.06,6.92h3.77l-.65,4h-3.66l-1.65,10.85s-.18,1.61.52,2.24a1.66,1.66,0,0,0,1.33.55h1.44l-.58,4.14h-3a5.1,5.1,0,0,1-3.42-1.94,7.15,7.15,0,0,1-1-5.17c.28-1.87,1.41-9.49,1.41-9.49a4,4,0,0,0-.21-2.27c-.48-.77-1.5-2.5-2.33-2.83V234h3.32Z" transform="translate(-350.95 -224.38)"/><polygon class="cls-2" points="67.42 2.72 72.07 2.72 67.86 31.49 63.17 31.49 67.42 2.72"/><path class="cls-2" d="M427.88,247a3.6,3.6,0,0,0-1.71.85,2.82,2.82,0,0,0-.72,2.75,2.57,2.57,0,0,0,1.57,1.28h8l.69-4.88Zm-5-12.9H436.3a6.55,6.55,0,0,1,2.33.52,4.86,4.86,0,0,1,2.05,2,6.24,6.24,0,0,1,.58,4.43c-.2,1.32-2.15,14.77-2.15,14.77H425a4.94,4.94,0,0,1-3.25-1.87c-1.65-1.83-1.1-4.87-.86-5.71s2.23-5,6-5.21,9.48-.07,9.48-.07.22-1.85.31-2.2c.17-.62-.07-2.6-1.85-2.68s-12.52,0-12.52,0Z" transform="translate(-350.95 -224.38)"/><path class="cls-2" d="M461.12,234.06l-.55,4-11.36,0s-2.09.66-2.23,2.46.68,2.27,1.58,2.34,6.94.08,7.46.08a5.11,5.11,0,0,1,3,1.57,5,5,0,0,1,1.34,4,7.35,7.35,0,0,1-5.79,7.19H440l.55-3.89,12.39-.07a4.47,4.47,0,0,0,1.92-.73,3.38,3.38,0,0,0,.78-2.61,2,2,0,0,0-2-1.5c-.89,0-6.74,0-7.19-.11a4.7,4.7,0,0,1-3.15-1.76,6.64,6.64,0,0,1-1-4.84,8.08,8.08,0,0,1,2.73-4.69,6.64,6.64,0,0,1,3.94-1.54C450.47,234,461.12,234.06,461.12,234.06Z" transform="translate(-350.95 -224.38)"/></svg>