<svg id="katman_1" data-name="katman 1" xmlns="http://www.w3.org/2000/svg" viewBox="0 0 125 40"><defs><style>.cls-1{fill:#fff;}.cls-2{fill:#313337;}.cls-2,.cls-3{fill-rule:evenodd;}.cls-3{fill:#e2071b;}</style></defs><rect class="cls-1" x="0.03" width="124.95" height="40"/><path class="cls-2" d="M914,534l1.13-.71L914,534Zm-4.69,1.63a10.36,10.36,0,0,0,4.79-3c-1.31,0-4.33,1.69-4.79,3Zm-7,8.12c.83,1.56,0,2.58,1.48,2.58H906c1.3,0,1.3-1.17,2.21-1.48v-3h-1.47v-.73h1.1v-1.85l-.5,1.25-2,1.31-1-2.15.55-3.36,4.8-3.69H903.4c-.32,1.37-1.78,4.37-1.57,6.29l.46,4.78Zm11.07-7.38c3.89-.09,2.76-2.72,5.58-2.89l-3.46,3.19-.28.44c2.93-.25,2.19-2,4.42-2.58v-1.85h-1.47c-.89,0-4.6,3-4.79,3.69Zm1.84,2.95c1.67-1.12,3.84-1.5,4.42-3.69-2.17.58.1.92-2.21,1.85-1.63.65-2-.07-2.21,1.84Zm1.84.37c1.64-.38,2.16-.26,2.58-1.84a7.78,7.78,0,0,0-2.58,1.84Zm0,2.21c1.13-.3,2.28-.69,2.58-1.84-1.34.31-2.23.56-2.58,1.84Zm-9.22-2.58c2.3,1.22,2.59-.71,2.71,2.34l.61.61h-.73v.69l-1.47.42c2.5,0,4.06-.12,4.06-2.58,0-.68-2-2.22-3.32-2.22h-.74c-1,0-.67.12-1.11.74Zm11.8,3.32-.08-.87-1.12.71,1.2.16Zm-10.69.74,1.47-.42v-.69h.73l-.61-.61c-.12-3-.41-1.12-2.71-2.34v1.85h-1.1v.73h1.47v3c-.91.31-.91,1.48-2.21,1.48h-2.21c-1.47,0-.65-1-1.48-2.58-.36-1.56-1.1-2.67-1.1-4.43v-1.47l.73-5.17H897.5v14.76h20.65c-.15-1.75-1.49-4.43-3.32-4.43-1.42,0-2,3.69-3.69,3.69a5.42,5.42,0,0,1-1.84-.37l-.37-2.95Z" transform="translate(-897.5 -520)"/><polygon class="cls-3" points="38.35 18.92 42.74 18.54 44.25 12.65 26.18 12.65 24.71 18.55 29.5 18.55 27.3 27.41 36.14 27.41 38.35 18.92 38.35 18.92"/><path class="cls-3" d="M952.07,542.24c0,8.34,14.95,4.82,19.57,4.28l.71-3.17.74-3.69h-7.37l-1.29,4-1.3.05c-1.24,0-2.58-.65-2.58-1.85v-.37c0-2.74,2.73-3.68,5.53-3.68h3.32l4.06.36a18.11,18.11,0,0,0,1.42-4.78c-.22-1-3.61-1.12-5.11-1.12h-5.16c-5.87,0-12.54,2.87-12.54,10Z" transform="translate(-897.5 -520)"/><path class="cls-3" d="M987.67,536.24l.17,4.9-3.06-.07,2.89-4.83Zm-13.84,8.58-1.3,2.49,7.93.1c1.17,0,.72.24,1.48-1.85h5.9v1.85h8.85l-1.63-14.74-12.75,0c-1.35,0-7.19,10.08-8.48,12.17Z" transform="translate(-897.5 -520)"/><path class="cls-3" d="M941.38,541.87l-1.31,5.48,7.95.06c.71,0,.65-.12,1.1-.37l3.69-14v-.37H944l-2.58,9.22Z" transform="translate(-897.5 -520)"/><path class="cls-3" d="M1009.25,536.72h3.29c.85,0,1.11.26,1.11,1.11,0,1.19-1.34,1.84-2.58,1.84h-2.61l.79-2.93Zm-2.61,10.69.74-4.43.62.06,1.59,3.26c.58.66.44,1.11,1.48,1.11h9.22l-4.17-6.2c3.11-.32,6.38-2.17,6.38-5.24v-1.11c0-1.19-1.6-2.21-3-2.21h-18.07l-3.75,14.74,8.91,0Z" transform="translate(-897.5 -520)"/></svg>