<svg id="katman_1" data-name="katman 1" xmlns="http://www.w3.org/2000/svg" viewBox="0 0 179.44 60"><defs><style>.cls-1,.cls-2{isolation:isolate;}.cls-2{font-size:14.5px;font-family:Merriweather-Bold, Merriweather;font-weight:700;}.cls-2,.cls-3{fill:#fff;}.cls-4{fill:#fce500;}.cls-5{fill:#041f45;}</style></defs><g id="Group_3928" data-name="Group 3928"><g id="Group_3093" data-name="Group 3093"><g id="ERBAY_LASTİK" data-name="ERBAY LASTİK" class="cls-1"><text class="cls-2" transform="translate(70 30)">ERBAY LASTİK</text></g><g id="Kereste_İmalat_İnşaat_Ltd._Şti." data-name="Kereste İmalat İnşaat Ltd. Şti." class="cls-1"><g class="cls-1"><path class="cls-3" d="M70.71,42V36.18h.7v2.89h.07l2.61-2.89H75l-2.44,2.63L75,42h-.85l-2-2.7-.73.81V42Z" transform="translate(0 0)"/><path class="cls-3" d="M77.34,42.09a2,2,0,0,1-1.09-.28,1.9,1.9,0,0,1-.7-.78,2.73,2.73,0,0,1-.24-1.18,2.76,2.76,0,0,1,.24-1.18,2,2,0,0,1,.69-.8,1.88,1.88,0,0,1,1-.29,2.25,2.25,0,0,1,.68.11,1.72,1.72,0,0,1,.6.37,1.91,1.91,0,0,1,.44.67,3.09,3.09,0,0,1,.16,1v.29H75.78v-.58h2.69a1.4,1.4,0,0,0-.15-.66,1.15,1.15,0,0,0-.41-.46,1.2,1.2,0,0,0-.64-.17,1.24,1.24,0,0,0-.69.2,1.39,1.39,0,0,0-.45.51,1.57,1.57,0,0,0-.15.68V40a1.89,1.89,0,0,0,.17.83,1.15,1.15,0,0,0,.48.52,1.36,1.36,0,0,0,.71.18,1.42,1.42,0,0,0,.48-.08,1,1,0,0,0,.37-.22.88.88,0,0,0,.24-.38l.65.18a1.48,1.48,0,0,1-.34.58,1.67,1.67,0,0,1-.6.38A2,2,0,0,1,77.34,42.09Z" transform="translate(0 0)"/><path class="cls-3" d="M80.17,42V37.64h.65v.66h0a1.07,1.07,0,0,1,.44-.53,1.27,1.27,0,0,1,.7-.2h.35v.68l-.15,0a1.1,1.1,0,0,0-.26,0,1.13,1.13,0,0,0-.56.13,1,1,0,0,0-.54.89V42Z" transform="translate(0 0)"/><path class="cls-3" d="M84.84,42.09a2,2,0,0,1-1.09-.28,1.9,1.9,0,0,1-.7-.78,2.73,2.73,0,0,1-.24-1.18,2.76,2.76,0,0,1,.24-1.18,2,2,0,0,1,.69-.8,1.88,1.88,0,0,1,1-.29,2.25,2.25,0,0,1,.68.11,1.72,1.72,0,0,1,.6.37,1.91,1.91,0,0,1,.44.67,3.09,3.09,0,0,1,.16,1v.29H83.28v-.58H86a1.4,1.4,0,0,0-.15-.66,1.15,1.15,0,0,0-.41-.46,1.2,1.2,0,0,0-.64-.17,1.24,1.24,0,0,0-.69.2,1.39,1.39,0,0,0-.45.51,1.57,1.57,0,0,0-.15.68V40a1.89,1.89,0,0,0,.17.83,1.15,1.15,0,0,0,.48.52,1.36,1.36,0,0,0,.71.18,1.42,1.42,0,0,0,.48-.08,1,1,0,0,0,.37-.22.88.88,0,0,0,.24-.38l.65.18a1.48,1.48,0,0,1-.34.58,1.67,1.67,0,0,1-.6.38A2,2,0,0,1,84.84,42.09Z" transform="translate(0 0)"/><path class="cls-3" d="M90.76,38.61l-.6.18a1,1,0,0,0-.46-.54,1.14,1.14,0,0,0-.48-.09,1.17,1.17,0,0,0-.67.18.56.56,0,0,0-.27.47.48.48,0,0,0,.19.39,1.4,1.4,0,0,0,.56.24l.65.16a1.78,1.78,0,0,1,.87.44,1,1,0,0,1,.29.75,1.13,1.13,0,0,1-.21.67,1.55,1.55,0,0,1-.6.46,2.08,2.08,0,0,1-.89.17A1.91,1.91,0,0,1,88,41.8a1.28,1.28,0,0,1-.55-.84l.63-.16a.91.91,0,0,0,.35.53,1.21,1.21,0,0,0,.67.17,1.25,1.25,0,0,0,.74-.2.56.56,0,0,0,.28-.48.49.49,0,0,0-.16-.38,1,1,0,0,0-.49-.23L88.77,40a1.78,1.78,0,0,1-.88-.45,1.09,1.09,0,0,1-.28-.75,1.07,1.07,0,0,1,.21-.65,1.43,1.43,0,0,1,.57-.45,2,2,0,0,1,.83-.16,1.65,1.65,0,0,1,1,.28A1.55,1.55,0,0,1,90.76,38.61Z" transform="translate(0 0)"/><path class="cls-3" d="M93.75,37.64v.57H91.49v-.57Zm-1.6-1h.67v4.16a1,1,0,0,0,.08.43.42.42,0,0,0,.22.18.87.87,0,0,0,.28,0h.18l.11,0,.14.6-.19.05a1.3,1.3,0,0,1-.31,0,1.33,1.33,0,0,1-.55-.12,1,1,0,0,1-.45-.38,1,1,0,0,1-.18-.63Z" transform="translate(0 0)"/><path class="cls-3" d="M96.55,42.09a2,2,0,0,1-1.09-.28,1.83,1.83,0,0,1-.7-.78,2.59,2.59,0,0,1-.25-1.18,2.62,2.62,0,0,1,.25-1.18,1.86,1.86,0,0,1,.69-.8,1.83,1.83,0,0,1,1-.29,2.19,2.19,0,0,1,.67.11,1.85,1.85,0,0,1,.61.37,1.89,1.89,0,0,1,.43.67,2.86,2.86,0,0,1,.16,1v.29H95v-.58h2.68a1.53,1.53,0,0,0-.14-.66,1.1,1.1,0,0,0-.42-.46,1.27,1.27,0,0,0-1.32,0,1.23,1.23,0,0,0-.45.51,1.45,1.45,0,0,0-.16.68V40a1.89,1.89,0,0,0,.17.83,1.28,1.28,0,0,0,.48.52,1.43,1.43,0,0,0,.72.18,1.51,1.51,0,0,0,.48-.08,1.07,1.07,0,0,0,.37-.22,1.12,1.12,0,0,0,.24-.38l.65.18a1.51,1.51,0,0,1-.35.58,1.67,1.67,0,0,1-.6.38A2,2,0,0,1,96.55,42.09Z" transform="translate(0 0)"/><path class="cls-3" d="M102.07,35.46a.49.49,0,0,1-.34-.14.43.43,0,0,1-.14-.32.45.45,0,0,1,.14-.32.51.51,0,0,1,.68,0,.45.45,0,0,1,.14.32.43.43,0,0,1-.14.32A.49.49,0,0,1,102.07,35.46Zm.35.72V42h-.7V36.18Z" transform="translate(0 0)"/><path class="cls-3" d="M103.74,42V37.64h.65v.68h0a1.18,1.18,0,0,1,.44-.54,1.35,1.35,0,0,1,.73-.2,1.25,1.25,0,0,1,.72.2,1.28,1.28,0,0,1,.46.54h0a1.24,1.24,0,0,1,.5-.54,1.59,1.59,0,0,1,.81-.2,1.26,1.26,0,0,1,1,.37,1.51,1.51,0,0,1,.38,1.13V42h-.67V39.08a.82.82,0,0,0-.27-.69,1,1,0,0,0-.62-.21.93.93,0,0,0-.71.28,1,1,0,0,0-.26.7V42h-.68V39a.78.78,0,0,0-.24-.6.88.88,0,0,0-.62-.23.93.93,0,0,0-.49.14,1,1,0,0,0-.36.39,1.13,1.13,0,0,0-.14.56V42Z" transform="translate(0 0)"/><path class="cls-3" d="M112,42.1a1.87,1.87,0,0,1-.76-.15,1.26,1.26,0,0,1-.73-1.19,1.13,1.13,0,0,1,.15-.61,1,1,0,0,1,.39-.36,2.41,2.41,0,0,1,.55-.21c.2,0,.4-.08.6-.1l.65-.08a1.09,1.09,0,0,0,.36-.09.25.25,0,0,0,.12-.23v0a.93.93,0,0,0-.23-.66.94.94,0,0,0-.69-.23,1.25,1.25,0,0,0-.76.21,1.21,1.21,0,0,0-.38.45l-.64-.23a1.65,1.65,0,0,1,.46-.62,1.69,1.69,0,0,1,.63-.31,2.5,2.5,0,0,1,.66-.09,3.13,3.13,0,0,1,.49.05,1.56,1.56,0,0,1,.53.2,1.31,1.31,0,0,1,.43.47,1.74,1.74,0,0,1,.17.83V42h-.67v-.59h0a1.09,1.09,0,0,1-.22.3,1.39,1.39,0,0,1-.43.28A1.53,1.53,0,0,1,112,42.1Zm.1-.6a1.26,1.26,0,0,0,.67-.16,1.08,1.08,0,0,0,.42-.4,1.07,1.07,0,0,0,.14-.52v-.61a.47.47,0,0,1-.19.09,2.09,2.09,0,0,1-.33.07l-.36.05-.28,0a2.35,2.35,0,0,0-.49.11.81.81,0,0,0-.36.22.6.6,0,0,0-.14.41.59.59,0,0,0,.26.52A1.12,1.12,0,0,0,112.08,41.5Z" transform="translate(0 0)"/><path class="cls-3" d="M115.88,36.18V42h-.67V36.18Z" transform="translate(0 0)"/><path class="cls-3" d="M118.39,42.1a1.87,1.87,0,0,1-.76-.15,1.32,1.32,0,0,1-.53-.46,1.23,1.23,0,0,1-.2-.73,1.13,1.13,0,0,1,.15-.61,1,1,0,0,1,.39-.36,2.41,2.41,0,0,1,.55-.21c.2,0,.4-.08.6-.1l.65-.08a1.09,1.09,0,0,0,.36-.09.25.25,0,0,0,.12-.23v0a.93.93,0,0,0-.23-.66.94.94,0,0,0-.69-.23,1.23,1.23,0,0,0-.76.21,1.21,1.21,0,0,0-.38.45L117,38.6a1.65,1.65,0,0,1,.46-.62,1.72,1.72,0,0,1,.62-.31,2.63,2.63,0,0,1,.67-.09,3.25,3.25,0,0,1,.49.05,1.56,1.56,0,0,1,.53.2,1.31,1.31,0,0,1,.43.47,1.74,1.74,0,0,1,.17.83V42h-.67v-.59h0a1.09,1.09,0,0,1-.22.3A1.39,1.39,0,0,1,119,42,1.53,1.53,0,0,1,118.39,42.1Zm.1-.6a1.28,1.28,0,0,0,.67-.16,1.08,1.08,0,0,0,.42-.4,1.07,1.07,0,0,0,.14-.52v-.61a.47.47,0,0,1-.19.09l-.33.07-.36.05-.28,0a2.35,2.35,0,0,0-.49.11.81.81,0,0,0-.36.22.6.6,0,0,0-.14.41.59.59,0,0,0,.26.52A1.12,1.12,0,0,0,118.49,41.5Z" transform="translate(0 0)"/><path class="cls-3" d="M123.51,37.64v.57h-2.26v-.57Zm-1.6-1h.67v4.16a1,1,0,0,0,.08.43.42.42,0,0,0,.22.18.87.87,0,0,0,.28,0h.18l.12,0,.13.6-.19.05a1.3,1.3,0,0,1-.31,0,1.33,1.33,0,0,1-.55-.12,1.18,1.18,0,0,1-.45-.38,1,1,0,0,1-.18-.63Z" transform="translate(0 0)"/><path class="cls-3" d="M127.22,35.46a.48.48,0,0,1-.34-.14.43.43,0,0,1-.14-.32.45.45,0,0,1,.14-.32.47.47,0,0,1,.34-.13.44.44,0,0,1,.33.13.41.41,0,0,1,.14.32.4.4,0,0,1-.14.32A.45.45,0,0,1,127.22,35.46Zm.35.72V42h-.71V36.18Z" transform="translate(0 0)"/><path class="cls-3" d="M129.56,39.38V42h-.67V37.64h.64v.68h.06a1.29,1.29,0,0,1,.47-.54,1.48,1.48,0,0,1,.8-.2,1.61,1.61,0,0,1,.78.18,1.26,1.26,0,0,1,.52.55,2.07,2.07,0,0,1,.18.92V42h-.67V39.27a1.12,1.12,0,0,0-.27-.8.94.94,0,0,0-.73-.29,1.2,1.2,0,0,0-.57.14,1.05,1.05,0,0,0-.4.41A1.42,1.42,0,0,0,129.56,39.38Z" transform="translate(0 0)"/><path class="cls-3" d="M136.66,38.61l-.6.18a1.28,1.28,0,0,0-.17-.3.93.93,0,0,0-.3-.24,1.08,1.08,0,0,0-.48-.09,1.14,1.14,0,0,0-.66.18.56.56,0,0,0-.27.47.47.47,0,0,0,.18.39,1.45,1.45,0,0,0,.57.24l.65.16a1.78,1.78,0,0,1,.87.44,1,1,0,0,1,.29.75,1.13,1.13,0,0,1-.21.67,1.55,1.55,0,0,1-.6.46,2.11,2.11,0,0,1-.89.17,1.91,1.91,0,0,1-1.11-.29,1.24,1.24,0,0,1-.55-.84l.63-.16a.91.91,0,0,0,.35.53,1.2,1.2,0,0,0,.66.17,1.28,1.28,0,0,0,.75-.2.59.59,0,0,0,.28-.48.53.53,0,0,0-.16-.38,1,1,0,0,0-.49-.23l-.73-.17a1.78,1.78,0,0,1-.88-.45,1.09,1.09,0,0,1-.28-.75,1.07,1.07,0,0,1,.21-.65,1.43,1.43,0,0,1,.57-.45,2,2,0,0,1,.82-.16,1.63,1.63,0,0,1,1,.28A1.5,1.5,0,0,1,136.66,38.61ZM134.79,42h.55l0,.23a.8.8,0,0,1,.4.18.57.57,0,0,1,.19.49.69.69,0,0,1-.31.59,1.39,1.39,0,0,1-.89.24l0-.45a1.12,1.12,0,0,0,.44-.08.29.29,0,0,0,.18-.28.27.27,0,0,0-.15-.27,1.21,1.21,0,0,0-.47-.09Z" transform="translate(0 0)"/><path class="cls-3" d="M139,42.1a1.87,1.87,0,0,1-.76-.15,1.42,1.42,0,0,1-.54-.46,1.3,1.3,0,0,1-.19-.73,1.22,1.22,0,0,1,.14-.61,1,1,0,0,1,.4-.36,2.33,2.33,0,0,1,.54-.21c.2,0,.41-.08.61-.1l.64-.08a1.16,1.16,0,0,0,.37-.09.24.24,0,0,0,.11-.23v0a.89.89,0,0,0-.23-.66.94.94,0,0,0-.69-.23,1.16,1.16,0,0,0-1.13.66l-.64-.23a1.65,1.65,0,0,1,.46-.62,1.72,1.72,0,0,1,.62-.31,2.63,2.63,0,0,1,.67-.09,3.25,3.25,0,0,1,.49.05,1.56,1.56,0,0,1,.53.2,1.21,1.21,0,0,1,.42.47,1.62,1.62,0,0,1,.18.83V42h-.68v-.59h0a1,1,0,0,1-.23.3,1.23,1.23,0,0,1-.42.28A1.56,1.56,0,0,1,139,42.1Zm.1-.6a1.28,1.28,0,0,0,.67-.16,1,1,0,0,0,.41-.4,1,1,0,0,0,.14-.52v-.61a.41.41,0,0,1-.18.09l-.33.07-.36.05-.28,0a2.35,2.35,0,0,0-.49.11.91.91,0,0,0-.37.22.59.59,0,0,0-.13.41.56.56,0,0,0,.26.52A1.12,1.12,0,0,0,139.14,41.5Z" transform="translate(0 0)"/><path class="cls-3" d="M143.55,42.1a1.87,1.87,0,0,1-.76-.15,1.32,1.32,0,0,1-.53-.46,1.23,1.23,0,0,1-.2-.73,1.13,1.13,0,0,1,.15-.61,1,1,0,0,1,.39-.36,2.25,2.25,0,0,1,.55-.21c.2,0,.4-.08.6-.1l.65-.08a1.16,1.16,0,0,0,.36-.09.25.25,0,0,0,.12-.23v0a.93.93,0,0,0-.23-.66,1,1,0,0,0-.69-.23,1.17,1.17,0,0,0-1.14.66l-.64-.23a1.65,1.65,0,0,1,.46-.62,1.72,1.72,0,0,1,.62-.31,2.63,2.63,0,0,1,.67-.09,3.25,3.25,0,0,1,.49.05,1.56,1.56,0,0,1,.53.2,1.31,1.31,0,0,1,.43.47,1.74,1.74,0,0,1,.17.83V42h-.67v-.59h0a1,1,0,0,1-.23.3,1.23,1.23,0,0,1-.42.28A1.56,1.56,0,0,1,143.55,42.1Zm.1-.6a1.28,1.28,0,0,0,.67-.16,1.09,1.09,0,0,0,.56-.92v-.61a.47.47,0,0,1-.19.09l-.33.07L144,40l-.28,0a2.35,2.35,0,0,0-.49.11.81.81,0,0,0-.36.22.55.55,0,0,0-.14.41.56.56,0,0,0,.26.52A1.12,1.12,0,0,0,143.65,41.5Z" transform="translate(0 0)"/><path class="cls-3" d="M148.67,37.64v.57h-2.26v-.57Zm-1.6-1h.67v4.16a1,1,0,0,0,.08.43.42.42,0,0,0,.22.18.87.87,0,0,0,.28,0h.18l.11,0,.14.6-.19.05a1.3,1.3,0,0,1-.31,0,1.33,1.33,0,0,1-.55-.12,1,1,0,0,1-.45-.38,1,1,0,0,1-.18-.63Z" transform="translate(0 0)"/><path class="cls-3" d="M152,42V36.18h.71v5.2h2.7V42Z" transform="translate(0 0)"/><path class="cls-3" d="M158.15,37.64v.57h-2.26v-.57Zm-1.6-1h.67v4.16a.84.84,0,0,0,.08.43.42.42,0,0,0,.22.18.82.82,0,0,0,.28,0H158l.11,0,.14.6L158,42a1.35,1.35,0,0,1-.31,0,1.38,1.38,0,0,1-.56-.12,1.18,1.18,0,0,1-.45-.38,1.09,1.09,0,0,1-.17-.63Z" transform="translate(0 0)"/><path class="cls-3" d="M160.76,42.09a1.67,1.67,0,0,1-1-.28,1.82,1.82,0,0,1-.66-.78,3,3,0,0,1-.23-1.2,2.87,2.87,0,0,1,.23-1.19,1.82,1.82,0,0,1,.66-.78,1.7,1.7,0,0,1,1-.28,1.44,1.44,0,0,1,.68.14,1.22,1.22,0,0,1,.38.32c.09.12.15.21.2.29h.06V36.18h.67V42h-.65v-.67H162l-.21.3a1.16,1.16,0,0,1-.39.32A1.39,1.39,0,0,1,160.76,42.09Zm.09-.6a1.08,1.08,0,0,0,.68-.21,1.32,1.32,0,0,0,.43-.59,2.56,2.56,0,0,0,.14-.87A2.5,2.5,0,0,0,162,39a1.22,1.22,0,0,0-.42-.57,1.13,1.13,0,0,0-.69-.21,1.11,1.11,0,0,0-.71.22,1.3,1.3,0,0,0-.42.59,2.41,2.41,0,0,0-.14.83,2.47,2.47,0,0,0,.14.84,1.38,1.38,0,0,0,.43.61A1.09,1.09,0,0,0,160.85,41.49Z" transform="translate(0 0)"/><path class="cls-3" d="M164.57,42.05a.49.49,0,0,1-.36-.15.51.51,0,0,1-.15-.36.5.5,0,0,1,.15-.37.51.51,0,0,1,.72,0,.5.5,0,0,1,.15.37.45.45,0,0,1-.07.25.66.66,0,0,1-.18.19A.59.59,0,0,1,164.57,42.05Z" transform="translate(0 0)"/><path class="cls-3" d="M171.81,37.64a.92.92,0,0,0-.42-.67,1.58,1.58,0,0,0-.89-.24,1.71,1.71,0,0,0-.67.12,1,1,0,0,0-.45.35.78.78,0,0,0-.16.49.65.65,0,0,0,.11.4.86.86,0,0,0,.29.28,2.12,2.12,0,0,0,.37.18l.35.11.59.16c.15,0,.32.09.51.16a2.85,2.85,0,0,1,.54.29,1.43,1.43,0,0,1,.42.46,1.36,1.36,0,0,1,.17.69,1.47,1.47,0,0,1-.25.85,1.64,1.64,0,0,1-.71.61,2.67,2.67,0,0,1-1.14.22,2.62,2.62,0,0,1-1.09-.2,1.66,1.66,0,0,1-.71-.56,1.6,1.6,0,0,1-.29-.84h.72a.89.89,0,0,0,.23.54,1.1,1.1,0,0,0,.49.32,1.93,1.93,0,0,0,.65.11,1.85,1.85,0,0,0,.72-.14,1.28,1.28,0,0,0,.51-.36.92.92,0,0,0,.19-.56.68.68,0,0,0-.17-.47,1.22,1.22,0,0,0-.42-.3c-.18-.07-.37-.14-.57-.2l-.72-.2a2.75,2.75,0,0,1-1.08-.56,1.24,1.24,0,0,1-.4-1,1.37,1.37,0,0,1,.27-.85,1.64,1.64,0,0,1,.72-.57,2.33,2.33,0,0,1,1-.21,2.41,2.41,0,0,1,1,.2,1.85,1.85,0,0,1,.7.55,1.37,1.37,0,0,1,.27.79ZM170.18,42h.56l-.05.23a.8.8,0,0,1,.41.18.6.6,0,0,1,.18.49.71.71,0,0,1-.3.59,1.41,1.41,0,0,1-.89.24l0-.45a1.15,1.15,0,0,0,.44-.08.3.3,0,0,0,.17-.28.28.28,0,0,0-.14-.27,1.25,1.25,0,0,0-.47-.09Z" transform="translate(0 0)"/><path class="cls-3" d="M175.53,37.64v.57h-2.26v-.57Zm-1.6-1h.67v4.16a.83.83,0,0,0,.09.43.37.37,0,0,0,.21.18.87.87,0,0,0,.28,0h.18l.12,0,.13.6-.19.05a1.3,1.3,0,0,1-.31,0,1.33,1.33,0,0,1-.55-.12,1.18,1.18,0,0,1-.45-.38,1,1,0,0,1-.18-.63Z" transform="translate(0 0)"/><path class="cls-3" d="M176.89,36.91a.47.47,0,0,1-.34-.13.45.45,0,0,1-.14-.32.45.45,0,0,1,.14-.33.51.51,0,0,1,.34-.13.49.49,0,0,1,.33.13.42.42,0,0,1,.14.33.41.41,0,0,1-.14.32A.44.44,0,0,1,176.89,36.91ZM176.54,42V37.64h.68V42Z" transform="translate(0 0)"/><path class="cls-3" d="M178.93,42.05a.49.49,0,0,1-.36-.15.51.51,0,0,1-.15-.36.5.5,0,0,1,.15-.37.51.51,0,0,1,.72,0,.5.5,0,0,1,.15.37.45.45,0,0,1-.07.25.47.47,0,0,1-.18.19A.56.56,0,0,1,178.93,42.05Z" transform="translate(0 0)"/></g></g></g><g id="Group_3796" data-name="Group 3796"><path id="Path_9951" data-name="Path 9951" class="cls-4" d="M28.27,58.81c.47,0,.78,1.17.78,1.17.71,0,1.41,0,2.11,0,0,0,.31-1.15.78-1.18s.93,1.07.93,1.07c.68-.07,1.35-.15,2-.26,0,0,.16-1.18.62-1.27s1.05.94,1.05.94c.65-.14,1.29-.31,1.92-.5,0,0,0-1.19.46-1.33s1.16.8,1.16.8c.61-.21,1.22-.45,1.81-.7,0,0-.13-1.19.3-1.39s1.25.66,1.25.66c.57-.29,1.13-.59,1.68-.92.83-.48-.27-1.16.13-1.41s1.32.5,1.32.5c.53-.35,1-.71,1.56-1.1,0,0-.41-1.12,0-1.41s1.37.34,1.37.34c.48-.41,1-.84,1.41-1.28.68-.67-.54-1.06-.21-1.4s1.4.18,1.4.18c.43-.47.85-1,1.25-1.45,0,0-.66-1-.38-1.37s1.42,0,1.42,0c.37-.52.73-1.06,1.08-1.6.51-.82-.78-.9-.54-1.31s1.4-.16,1.4-.16c.32-.58.61-1.16.89-1.76.42-.89-.88-.8-.7-1.23s1.38-.33,1.38-.33c.25-.62.48-1.26.68-1.9.32-1-1-.68-.84-1.14s1.32-.5,1.32-.5c.18-.67.33-1.35.46-2,.19-1-1.06-.56-1-1s1.24-.67,1.24-.67c.05-.36.1-.71.13-1.07s0-.72.07-1.08c0,0-1.11-.42-1.1-.89S60,30,60,30c0-.7,0-1.4-.07-2.09-.06-1-1.15-.27-1.2-.74s1-1,1-1c-.09-.67-.19-1.33-.32-2-.19-1-1.18-.13-1.29-.59s.91-1.08.91-1.08c-.16-.64-.34-1.26-.55-1.89-.3-.93-1.19,0-1.35-.42s.77-1.18.77-1.18c-.23-.6-.49-1.2-.76-1.78-.41-.88-1.18.16-1.39-.25s.62-1.28.62-1.28c-.3-.56-.63-1.11-1-1.65,0,0-1.16.31-1.42-.08s.47-1.34.47-1.34c-.37-.52-.76-1-1.16-1.52-.6-.74-1.1.44-1.41.08s.3-1.38.3-1.38c-.42-.47-.87-.93-1.32-1.37,0,0-1.05.57-1.4.25s.14-1.41.14-1.41c-.49-.42-1-.82-1.49-1.21-.76-.58-1,.69-1.35.42s0-1.42,0-1.42c-.54-.36-1.09-.7-1.65-1,0,0-.88.8-1.29.58s-.21-1.4-.21-1.4c-.58-.3-1.18-.58-1.79-.84,0,0-.77.9-1.21.73s-.38-1.37-.38-1.37c-.63-.23-1.28-.43-1.93-.62,0,0-.66,1-1.11.88s-.55-1.3-.55-1.3C36,.58,35.3.45,34.6.34c0,0-.53,1.07-1,1S32.9.12,32.9.12h-.12l-.56,0Q31.49,0,30.75,0s-.38,1.12-.85,1.12S29,0,29,0c-.69,0-1.38.07-2.07.13,0,0-.23,1.17-.7,1.23s-1-1-1-1l-.43.07-.08,0c-.49.08-1,.19-1.45.3,0,0-.09,1.18-.55,1.3s-1.11-.88-1.11-.88q-.94.27-1.86.6s.06,1.19-.38,1.37-1.21-.74-1.21-.74l-.49.21c-.42.19-.84.4-1.25.61,0,0,.2,1.17-.22,1.4S15,4,15,4c-.55.32-1.09.65-1.62,1,0,0,.34,1.14,0,1.41S12,6,12,6c-.5.38-1,.78-1.48,1.2,0,0,.48,1.09.13,1.4s-1.39-.25-1.39-.25c-.46.44-.91.89-1.34,1.36,0,0,.6,1,.3,1.38S6.76,11,6.76,11c-.41.5-.79,1-1.16,1.53,0,0,.72.95.45,1.34S4.64,14,4.64,14c-.34.55-.68,1.11-1,1.68,0,0,.83.85.62,1.27s-1.4.25-1.4.25q-.42.9-.78,1.83s.93.74.77,1.19-1.36.43-1.36.43c-.21.65-.4,1.3-.57,2,0,0,1,.62.92,1.08s-1.3.59-1.3.59c-.13.69-.23,1.4-.32,2.11,0,0,1.08.48,1,.95s-1.2.75-1.2.75C0,28.78,0,29.5,0,30.21c0,0,1.14.34,1.16.81s-1.1.89-1.1.89c0,.69.12,1.37.2,2,0,0,1.17.2,1.25.67s-1,1-1,1c.13.66.27,1.3.43,2,0,0,1.2,0,1.33.5s-.84,1.13-.84,1.13q.3.93.66,1.83s1.19-.09,1.37.34-.7,1.23-.7,1.23c.28.58.56,1.16.86,1.72,0,0,1.18-.24,1.41.17s-.54,1.31-.54,1.31c.33.54.69,1.06,1.06,1.58,0,0,1.13-.37,1.41,0s-.38,1.36-.38,1.36c.4.5.8,1,1.23,1.46,0,0,1.09-.51,1.41-.18S9,51.44,9,51.44q.69.68,1.41,1.29s1-.63,1.38-.33-.05,1.41-.05,1.41c.37.29.74.57,1.13.84l.36.25.07,0s.93-.75,1.33-.5.12,1.42.12,1.42c.56.33,1.13.64,1.72.93,0,0,.82-.85,1.25-.65s.29,1.38.29,1.38c.46.2.92.39,1.39.57h0l.46.17c.24.08.72-1,1.17-.82s.46,1.34.46,1.34c.66.19,1.33.36,2,.51,0,0,.59-1,1.05-.94s.63,1.26.63,1.26c.49.08,1,.15,1.46.21l.56.06h.12S27.8,58.78,28.27,58.81ZM32.05,8.08C44.13,7,55.31,20.32,51.92,32a22,22,0,0,0-19.87-24Zm-21.85,18c.07-.33.14-.66.22-1A20.05,20.05,0,0,1,12.7,19.6c.17-.28.34-.56.53-.83s.37-.54.56-.8.19-.26.3-.39l.61-.75a20.32,20.32,0,0,1,3.18-3c.26-.2.52-.39.79-.57s.81-.53,1.23-.77.85-.47,1.29-.69.88-.41,1.34-.59l.46-.18a20.2,20.2,0,0,1,11.43-.76c.63.14,1.25.31,1.85.5l.22.07a19.65,19.65,0,0,1,3.92,1.82L41,13c.36.24.72.49,1.06.74s.77.6,1.14.91.83.75,1.22,1.15l.52.54c.22.24.43.48.63.73s.41.51.6.76l.29.39.55.8c.17.27.34.55.5.83s.32.57.47.86.15.28.22.43.28.59.4.89.25.6.37.91a20.21,20.21,0,0,1,1.22,5.81q0,.51,0,1a19.53,19.53,0,0,1-.38,4.11c-.06.33-.14.67-.22,1-.16.65-.36,1.29-.58,1.92q-.16.47-.36.93c-.19.46-.4.91-.62,1.35a19.42,19.42,0,0,1-1.24,2.11c-.18.27-.37.54-.56.8l-.29.39c-.4.51-.83,1-1.27,1.47s-.68.69-1,1-1,.84-1.49,1.23l-.39.29A20.49,20.49,0,0,1,37,48.93l-.46.16a20.47,20.47,0,0,1-8.44,1A20.11,20.11,0,0,1,20.9,48c-.3-.15-.59-.31-.87-.47l-.42-.24c-.42-.26-.83-.52-1.23-.8s-.79-.58-1.16-.89-.74-.63-1.09-1-.47-.45-.69-.69-.44-.47-.65-.71-.63-.74-.92-1.13-.57-.79-.83-1.19l-.26-.41c-.25-.42-.49-.84-.71-1.27l-.22-.44c-.14-.29-.28-.58-.41-.88a19.86,19.86,0,0,1-.82-2.31q-.21-.71-.36-1.44c-.07-.32-.13-.65-.19-1-.1-.66-.18-1.32-.22-2q0-.51,0-1a21,21,0,0,1,.38-4.11ZM4.14,27.59c.5,14.51,9.11,25,23.46,28.27A26,26,0,0,1,4.14,27.59Z" transform="translate(0 0)"/><path id="Path_9952" data-name="Path 9952" class="cls-4" d="M11.11,30c0-.21,0-.42,0-.63l-.35.05c0,.2,0,.38,0,.58a19.23,19.23,0,0,0,4.05,11.83l.31-.17A19,19,0,0,1,11.11,30Z" transform="translate(0 0)"/><path id="Path_9953" data-name="Path 9953" class="cls-4" d="M48.9,30a19,19,0,0,1-4,11.66l.31.16a19.3,19.3,0,0,0,4-11.82c0-.17,0-.33,0-.49l-.34-.06C48.89,29.59,48.9,29.77,48.9,30Z" transform="translate(0 0)"/><path id="Path_9954" data-name="Path 9954" class="cls-4" d="M30,48.89a18.86,18.86,0,0,1-6.4-1.11l-.06.35a19.35,19.35,0,0,0,12.92,0l-.06-.35A18.9,18.9,0,0,1,30,48.89Z" transform="translate(0 0)"/><path id="Path_9955" data-name="Path 9955" class="cls-4" d="M36.15,46.57C35,42,32.71,38.82,30,38.82S25,42,23.87,46.57a17.76,17.76,0,0,0,12.28,0Z" transform="translate(0 0)"/><path id="Path_9956" data-name="Path 9956" class="cls-4" d="M16.2,41c3.52-2.15,5.73-4.84,5.72-7.21a3.55,3.55,0,0,0-.17-1.16c-.84-2.58-4.62-3.82-9.39-3.43,0,.25,0,.5,0,.76A17.72,17.72,0,0,0,16.2,41Z" transform="translate(0 0)"/><path id="Path_9957" data-name="Path 9957" class="cls-4" d="M34.75,13c-1.86,4.42-1.86,8.43.35,10s6,.37,9.63-2.76A17.74,17.74,0,0,0,34.75,13Z" transform="translate(0 0)"/><path id="Path_9958" data-name="Path 9958" class="cls-4" d="M15.28,20.27c3.63,3.13,7.43,4.36,9.64,2.76s2.21-5.61.35-10A17.83,17.83,0,0,0,15.28,20.27Z" transform="translate(0 0)"/><path id="Path_9959" data-name="Path 9959" class="cls-4" d="M45.65,19.44l.25-.24a19.36,19.36,0,0,0-10.48-7.65l-.16.31A19.08,19.08,0,0,1,45.65,19.44Z" transform="translate(0 0)"/><path id="Path_9960" data-name="Path 9960" class="cls-4" d="M24.76,11.86c-.05-.1-.1-.21-.16-.31a19.46,19.46,0,0,0-10.49,7.64l.25.25A19.14,19.14,0,0,1,24.76,11.86Z" transform="translate(0 0)"/><path id="Path_9961" data-name="Path 9961" class="cls-4" d="M47.65,29.28c-4.76-.39-8.54.85-9.38,3.44s1.48,5.8,5.55,8.28a17.71,17.71,0,0,0,3.85-11C47.67,29.73,47.66,29.51,47.65,29.28Z" transform="translate(0 0)"/><path id="Path_9962" data-name="Path 9962" class="cls-4" d="M30,9.05A21,21,0,1,0,51,30,21,21,0,0,0,30,9.05ZM30,50.5A20.5,20.5,0,1,1,50.51,30,20.5,20.5,0,0,1,30,50.5Z" transform="translate(0 0)"/><path id="Path_9963" data-name="Path 9963" class="cls-4" d="M31.64,22.54,32,11.21H28.05l.16,11.33Z" transform="translate(0 0)"/><path id="Path_9964" data-name="Path 9964" class="cls-4" d="M46.93,22.06,36.3,26l1.16,3.24,10.78-3.5Z" transform="translate(0 0)"/><path id="Path_9965" data-name="Path 9965" class="cls-4" d="M32.71,36.6l6.83,9,3.07-2.45-7.22-8.75Z" transform="translate(0 0)"/><path id="Path_9966" data-name="Path 9966" class="cls-4" d="M17.89,43.52,21,45.85l6.62-9.2-2.76-2Z" transform="translate(0 0)"/><path id="Path_9967" data-name="Path 9967" class="cls-4" d="M23.92,26.08,13.15,22.53,12,26.29l10.91,3.08Z" transform="translate(0 0)"/><circle id="Ellipse_302" data-name="Ellipse 302" class="cls-4" cx="30.01" cy="29.67" r="6.22"/><g id="Group_3794" data-name="Group 3794"><path id="Path_9968" data-name="Path 9968" class="cls-5" d="M27.27,31.33a2.28,2.28,0,0,1-.45,0,1.36,1.36,0,0,1-.48-.16,1,1,0,0,1-.38-.4A1.44,1.44,0,0,1,25.8,30V26.64a1.7,1.7,0,0,1,.13-.67,1.1,1.1,0,0,1,.32-.42,1.35,1.35,0,0,1,.45-.22,2,2,0,0,1,.48-.07l1.08,0,.84,0,.69.05v1H27.54a.6.6,0,0,0-.39.12.49.49,0,0,0-.14.38v.87l2.39.06v1L27,28.83v.83a.62.62,0,0,0,.07.33.39.39,0,0,0,.19.17,1,1,0,0,0,.25,0h2.27v1l-.8.07-.88,0Z" transform="translate(0 0)"/></g><g id="Group_3795" data-name="Group 3795"><path id="Path_9969" data-name="Path 9969" class="cls-5" d="M31.94,33.61a1.94,1.94,0,0,1-.79-.14.94.94,0,0,1-.48-.46,1.94,1.94,0,0,1-.16-.82v-4.6h1.21V32a.6.6,0,0,0,.07.32.35.35,0,0,0,.19.17.86.86,0,0,0,.28,0h1.9v1.09Z" transform="translate(0 0)"/></g></g></g></svg>