<svg id="katman_1" data-name="katman 1" xmlns="http://www.w3.org/2000/svg" viewBox="0 0 140 60.01"><defs><style>.cls-1{fill:#e9515e;}.cls-2{fill:#fff;}</style></defs><g id="Group_3672" data-name="Group 3672"><g id="Group_3670" data-name="Group 3670"><path id="Path_5473" data-name="Path 5473" class="cls-1" d="M92.27,12.09h3.56c.07,0,.12.12.08.21L85.36,38.93a1.94,1.94,0,0,1-1.68,1.41H80.29c-.14,0-.24-.24-.16-.42L90.59,13.51A1.94,1.94,0,0,1,92.27,12.09Z" transform="translate(0 0)"/><path id="Path_5474" data-name="Path 5474" class="cls-1" d="M87.49,13a.68.68,0,0,0-.38-.87.55.55,0,0,0-.25,0H76.3c-.56,0-.91.87-.63,1.58l3.62,9.18a.75.75,0,0,0,.63.54h2.45a.68.68,0,0,0,.68-.67.73.73,0,0,0,0-.25l-1.85-4.7c-.13-.33,0-.74.29-.74h4a.67.67,0,0,0,.63-.43Z" transform="translate(0 0)"/><path id="Path_5475" data-name="Path 5475" class="cls-1" d="M88.62,39.05a.94.94,0,0,0,.54,1.22.84.84,0,0,0,.35.07H99.67c.56,0,.91-.88.63-1.59l-3.62-9.18a.73.73,0,0,0-.63-.53H94A1,1,0,0,0,93,30a.84.84,0,0,0,.07.35l1.7,4.33c.13.33,0,.74-.3.74H90.73a1,1,0,0,0-.89.6Z" transform="translate(0 0)"/><path id="Path_5476" data-name="Path 5476" class="cls-2" d="M2,38.15c-1.32-1.46-2-3.8-2-7V1.5A1.47,1.47,0,0,1,1.45,0H4.86A1.47,1.47,0,0,1,6.31,1.5h0V30.21A6.88,6.88,0,0,0,7.07,34a3.36,3.36,0,0,0,2.44,1.29l1,.14a1.48,1.48,0,0,1,1.25,1.49v1.93a1.47,1.47,0,0,1-1.45,1.5H8.09Q4,40.34,2,38.15Z" transform="translate(0 0)"/><path id="Path_5477" data-name="Path 5477" class="cls-2" d="M16.06,38.42a7.13,7.13,0,0,1-1.91-5.2V30.85a6.9,6.9,0,0,1,2.22-5.38c1.47-1.33,3.67-2,6.58-2h6.34A1.47,1.47,0,0,0,30.74,22h0V21a5.39,5.39,0,0,0-.51-2.53A3.36,3.36,0,0,0,28.35,17a12.41,12.41,0,0,0-4-.5H17.59A1.46,1.46,0,0,1,16.14,15h0V13.88a1.49,1.49,0,0,1,1.13-1.46,40.38,40.38,0,0,1,9.55-1c3.46,0,6,.7,7.7,2.11S37,17.27,37,20.57v18A1.47,1.47,0,0,1,35.59,40H33.12a1.44,1.44,0,0,1-1.36-1l-.11-.32a1.43,1.43,0,0,0-1.79-.92,1.33,1.33,0,0,0-.24.1c-.2.12-.43.23-.67.36a22,22,0,0,1-3.68,1.45,14.64,14.64,0,0,1-4.2.63A6.75,6.75,0,0,1,16.06,38.42ZM27.91,35q1.15-.37,1.86-.63a1.51,1.51,0,0,0,1-1.41V28.16a1.47,1.47,0,0,0-1.44-1.5h-.08l-4.38.23q-4.43.38-4.43,4.06v1.16a3.32,3.32,0,0,0,1.05,2.74,4.28,4.28,0,0,0,2.67.9A12.83,12.83,0,0,0,27.91,35Z" transform="translate(0 0)"/><path id="Path_5478" data-name="Path 5478" class="cls-2" d="M41.62,12.08h2.72a1.48,1.48,0,0,1,1.34.93l.12.33a1.42,1.42,0,0,0,2.07.72,18.08,18.08,0,0,1,2.91-1.48,12.74,12.74,0,0,1,4.8-1q4.48,0,6.46,2.71a12,12,0,0,1,2,7.2V38.84a1.48,1.48,0,0,1-1.45,1.5H59.16a1.47,1.47,0,0,1-1.44-1.5h0V22.31a4.87,4.87,0,0,0-1.22-3.53,4.4,4.4,0,0,0-3.31-1.27,10.18,10.18,0,0,0-3.46.58,14.06,14.06,0,0,0-2.54,1.28,1.5,1.5,0,0,0-.71,1.29V38.84A1.47,1.47,0,0,1,45,40.34H41.62a1.47,1.47,0,0,1-1.45-1.5h0V13.58A1.48,1.48,0,0,1,41.62,12.08Z" transform="translate(0 0)"/><path id="Path_5479" data-name="Path 5479" class="cls-2" d="M68.81,12.08h3.42a1.49,1.49,0,0,1,1.45,1.5h0V38.84a1.47,1.47,0,0,1-1.45,1.5H68.81a1.46,1.46,0,0,1-1.44-1.5h0V13.58a1.47,1.47,0,0,1,1.44-1.5Z" transform="translate(0 0)"/><rect id="Rectangle_309" data-name="Rectangle 309" class="cls-2" x="67.37" y="4.23" width="6.31" height="6.8" rx="1.56"/><path id="Path_5480" data-name="Path 5480" class="cls-2" d="M103.85,38.12c-1.31-1.47-1.93-4-1.86-7.48l.18-11.77a1.47,1.47,0,0,0-1.42-1.52H99.37a1.49,1.49,0,0,1-1.45-1.5h0V14.32a1.5,1.5,0,0,1,1.13-1.46l2.35-.55A1.49,1.49,0,0,0,102.52,11l.64-5.54a1.46,1.46,0,0,1,1.44-1.32h2.2a1.47,1.47,0,0,1,1.44,1.5v4.91a1.47,1.47,0,0,0,1.45,1.5h4a1.47,1.47,0,0,1,1.45,1.5h0v2.28a1.47,1.47,0,0,1-1.44,1.5h-4a1.47,1.47,0,0,0-1.45,1.5V30.59a5.16,5.16,0,0,0,.89,3.45,3.54,3.54,0,0,0,2.32,1.13l2.11.23a1.47,1.47,0,0,1,1.29,1.49v2a1.47,1.47,0,0,1-1.44,1.5h-3.08Q105.8,40.34,103.85,38.12Z" transform="translate(0 0)"/><path id="Path_5481" data-name="Path 5481" class="cls-2" d="M119,38.42a7,7,0,0,1-1.91-5.2V30.85a6.92,6.92,0,0,1,2.21-5.38c1.48-1.33,3.67-2,6.59-2h6.34a1.46,1.46,0,0,0,1.44-1.5h0V21a5.27,5.27,0,0,0-.51-2.53A3.29,3.29,0,0,0,131.3,17a12.31,12.31,0,0,0-4-.5h-6.8A1.46,1.46,0,0,1,119.1,15h0V13.88a1.49,1.49,0,0,1,1.13-1.46,40.32,40.32,0,0,1,9.55-1c3.46,0,6,.7,7.7,2.11S140,17.27,140,20.57v18a1.46,1.46,0,0,1-1.44,1.5h-2.48a1.44,1.44,0,0,1-1.36-1l-.11-.32a1.42,1.42,0,0,0-1.79-.92l-.24.1c-.2.12-.43.23-.67.36a22,22,0,0,1-3.68,1.45,14.59,14.59,0,0,1-4.2.63A6.75,6.75,0,0,1,119,38.42ZM130.87,35c.77-.25,1.38-.46,1.85-.63a1.48,1.48,0,0,0,1-1.41V28.16a1.46,1.46,0,0,0-1.44-1.5h-.08l-4.38.23c-2.94.25-4.42,1.6-4.42,4.06v1.16a3.31,3.31,0,0,0,1,2.74,4.32,4.32,0,0,0,2.67.9,12.9,12.9,0,0,0,3.79-.76Z" transform="translate(0 0)"/></g><g id="Group_3671" data-name="Group 3671"><path id="Path_5482" data-name="Path 5482" class="cls-2" d="M6.55,57.61V55.16l-2.36-5H5L7,54.35,8.9,50.2h.81l-2.35,5v2.45Z" transform="translate(0 0)"/><path id="Path_5483" data-name="Path 5483" class="cls-2" d="M11.28,57.68a1.42,1.42,0,0,1-1-.36,1.31,1.31,0,0,1-.38-1v-.38a1.34,1.34,0,0,1,.42-1,1.79,1.79,0,0,1,1.26-.4h1.83v-.66a1.39,1.39,0,0,0-.12-.57.78.78,0,0,0-.41-.37,2.31,2.31,0,0,0-.86-.13H10.36V52.3l.83-.11c.36,0,.73,0,1.1,0a3,3,0,0,1,1.08.16,1.24,1.24,0,0,1,.65.54,1.91,1.91,0,0,1,.2,1v3.8h-.61L13.46,57a.89.89,0,0,1-.25.14c-.14.07-.32.15-.53.23a5.39,5.39,0,0,1-.68.22A3.47,3.47,0,0,1,11.28,57.68Zm.33-.6A1.5,1.5,0,0,0,12,57l.47-.12.45-.13.34-.12.14-.05v-1.7L11.79,55a1.15,1.15,0,0,0-.83.28,1,1,0,0,0-.24.67v.24a.92.92,0,0,0,.13.52.8.8,0,0,0,.35.28,1.43,1.43,0,0,0,.41.09Z" transform="translate(0 0)"/><path id="Path_5484" data-name="Path 5484" class="cls-2" d="M15.47,57.61V57l3.11-4.12H15.39v-.66h4.12v.6L16.39,57h3.12v.65Z" transform="translate(0 0)"/><path id="Path_5485" data-name="Path 5485" class="cls-2" d="M20.71,57.61V52.23h.8v5.38Z" transform="translate(0 0)"/><path id="Path_5486" data-name="Path 5486" class="cls-2" d="M24.42,57.62a1.61,1.61,0,0,1-.78-.16,1,1,0,0,1-.47-.54,2.79,2.79,0,0,1-.17-1v-6h.8v5.87a2.26,2.26,0,0,0,.1.73.61.61,0,0,0,.26.35,1.09,1.09,0,0,0,.4.12l.54.06v.58Z" transform="translate(0 0)"/><path id="Path_5487" data-name="Path 5487" class="cls-2" d="M26,57.61V52.23h.8v5.38Z" transform="translate(0 0)"/><path id="Path_5488" data-name="Path 5488" class="cls-2" d="M28,57.62V52.23h.63l.17.6a4.63,4.63,0,0,1,.9-.49,3.08,3.08,0,0,1,1.12-.2,1.54,1.54,0,0,1,1.4.8,4.72,4.72,0,0,1,.61-.37,5,5,0,0,1,.76-.3,2.72,2.72,0,0,1,.79-.13,1.71,1.71,0,0,1,1,.25,1.42,1.42,0,0,1,.55.66,2.53,2.53,0,0,1,.18.94v3.62h-.8V54.05a1.29,1.29,0,0,0-.13-.61,1.06,1.06,0,0,0-.39-.42,1.12,1.12,0,0,0-.62-.15,2.69,2.69,0,0,0-.93.17,5.75,5.75,0,0,0-.87.41c0,.1.05.2.07.3a1.63,1.63,0,0,1,0,.31v3.56h-.8V54.05a1.43,1.43,0,0,0-.14-.61,1,1,0,0,0-.38-.42,1.11,1.11,0,0,0-.61-.15,2.56,2.56,0,0,0-.62.07,2.45,2.45,0,0,0-.54.18,3.45,3.45,0,0,0-.54.28v4.22Z" transform="translate(0 0)"/><path id="Path_5489" data-name="Path 5489" class="cls-2" d="M42.34,57.68l-.53,0-.63,0-.61,0-.48-.07v-.62l.61,0,.79,0h.82a3.66,3.66,0,0,0,.81-.09,1.12,1.12,0,0,0,.58-.33,1,1,0,0,0,.22-.7v-.5a1.08,1.08,0,0,0-.26-.79,1.18,1.18,0,0,0-.85-.26H42a2.27,2.27,0,0,1-1.43-.4,1.65,1.65,0,0,1-.52-1.4v-.42a1.77,1.77,0,0,1,.56-1.49,2.52,2.52,0,0,1,1.59-.44l.73,0,.78.08a6,6,0,0,1,.63.1V51l-1-.07-1.05,0a3,3,0,0,0-.79.1.93.93,0,0,0-.51.38,1.33,1.33,0,0,0-.17.76v.34a1,1,0,0,0,.32.85,1.5,1.5,0,0,0,.9.23h.86a1.93,1.93,0,0,1,1,.22,1.39,1.39,0,0,1,.59.61,2,2,0,0,1,.19.89v.58A1.81,1.81,0,0,1,44.37,57a1.59,1.59,0,0,1-.84.55A4.38,4.38,0,0,1,42.34,57.68Z" transform="translate(0 0)"/><path id="Path_5490" data-name="Path 5490" class="cls-2" d="M47.05,57.68a1.42,1.42,0,0,1-1-.36,1.28,1.28,0,0,1-.39-1v-.38a1.37,1.37,0,0,1,.42-1,1.83,1.83,0,0,1,1.27-.4h1.82v-.66a1.24,1.24,0,0,0-.11-.57.8.8,0,0,0-.42-.37,2.25,2.25,0,0,0-.86-.13H46.13V52.3l.82-.11c.37,0,.73,0,1.1,0a3.1,3.1,0,0,1,1.09.16,1.21,1.21,0,0,1,.64.54,2,2,0,0,1,.21,1v3.8h-.62L49.22,57a.89.89,0,0,1-.25.14,5.58,5.58,0,0,1-.52.23,6.12,6.12,0,0,1-.69.22A3.38,3.38,0,0,1,47.05,57.68Zm.33-.6a1.39,1.39,0,0,0,.41,0l.48-.12a3.88,3.88,0,0,0,.44-.13l.34-.12.14-.05v-1.7L47.55,55a1.11,1.11,0,0,0-.82.28.92.92,0,0,0-.25.67v.24a.85.85,0,0,0,.14.52A.72.72,0,0,0,47,57a1.5,1.5,0,0,0,.42.09Z" transform="translate(0 0)"/><path id="Path_5491" data-name="Path 5491" class="cls-2" d="M51.44,57.62V52.23h.62l.18.6a3.9,3.9,0,0,1,.9-.48,2.78,2.78,0,0,1,1.06-.21,1.69,1.69,0,0,1,1,.25,1.54,1.54,0,0,1,.54.67,2.52,2.52,0,0,1,.17.9v3.66h-.8V54.05a1.3,1.3,0,0,0-.14-.61,1,1,0,0,0-.38-.42,1.2,1.2,0,0,0-.61-.15,2.56,2.56,0,0,0-.62.07,2.45,2.45,0,0,0-.54.18,4.58,4.58,0,0,0-.54.28v4.22Z" transform="translate(0 0)"/><path id="Path_5492" data-name="Path 5492" class="cls-2" d="M58.37,57.68a1.42,1.42,0,0,1-1-.36,1.28,1.28,0,0,1-.39-1v-.38a1.37,1.37,0,0,1,.42-1,1.83,1.83,0,0,1,1.27-.4h1.82v-.66a1.24,1.24,0,0,0-.11-.57.8.8,0,0,0-.42-.37,2.25,2.25,0,0,0-.86-.13H57.45V52.3l.82-.11c.37,0,.73,0,1.1,0a3.1,3.1,0,0,1,1.09.16,1.21,1.21,0,0,1,.64.54,2,2,0,0,1,.21,1v3.8H60.7L60.55,57a.89.89,0,0,1-.25.14,5.58,5.58,0,0,1-.52.23,6.12,6.12,0,0,1-.69.22A3.47,3.47,0,0,1,58.37,57.68Zm.33-.6a1.39,1.39,0,0,0,.41,0l.48-.12a3.88,3.88,0,0,0,.44-.13l.34-.12.14-.05v-1.7L58.87,55a1.11,1.11,0,0,0-.82.28.92.92,0,0,0-.25.67v.24a.85.85,0,0,0,.14.52.72.72,0,0,0,.34.28,1.43,1.43,0,0,0,.42.09Z" transform="translate(0 0)"/><path id="Path_5493" data-name="Path 5493" class="cls-2" d="M64.2,60l.69-2.39a1.63,1.63,0,0,1-.53-.12,1.45,1.45,0,0,1-.5-.39,2.31,2.31,0,0,1-.38-.75l-1.29-4.13H63l1.2,4a1.65,1.65,0,0,0,.23.46.75.75,0,0,0,.26.21.62.62,0,0,0,.23.07h.11l1.38-4.7h.82l-2,6.78-.46,1Z" transform="translate(0 0)"/><path id="Path_5494" data-name="Path 5494" class="cls-2" d="M68.18,57.61V52.23H69v5.38Zm.2-6.65a.14.14,0,0,1-.16-.12V50a.15.15,0,0,1,.12-.17h.41a.16.16,0,0,1,.11,0,.13.13,0,0,1,0,.12v.78c0,.11-.05.16-.15.16Z" transform="translate(0 0)"/><path id="Path_5495" data-name="Path 5495" class="cls-2" d="M74.59,57.61l-2-5.38h.81l1.68,4.64,1.72-4.64h.81L75.5,57.61Z" transform="translate(0 0)"/><path id="Path_5496" data-name="Path 5496" class="cls-2" d="M80.35,57.68A2.9,2.9,0,0,1,79,57.42a1.44,1.44,0,0,1-.7-.85,5.49,5.49,0,0,1-.22-1.66,5.26,5.26,0,0,1,.22-1.67A1.44,1.44,0,0,1,79,52.4a3.07,3.07,0,0,1,1.34-.24,3.54,3.54,0,0,1,1.16.16,1.2,1.2,0,0,1,.66.55,2.22,2.22,0,0,1,.22,1.07,1.38,1.38,0,0,1-.19.77,1,1,0,0,1-.53.41,2.51,2.51,0,0,1-.82.13h-2a4.15,4.15,0,0,0,.14,1,.94.94,0,0,0,.48.57,2.27,2.27,0,0,0,1,.18h1.74v.48c-.31,0-.61.08-.91.1A9.93,9.93,0,0,1,80.35,57.68Zm-1.46-3h1.92a1.13,1.13,0,0,0,.67-.16.75.75,0,0,0,.22-.6,1.6,1.6,0,0,0-.14-.72.79.79,0,0,0-.43-.37,2.15,2.15,0,0,0-.76-.1,1.93,1.93,0,0,0-.89.16,1,1,0,0,0-.46.59A4.42,4.42,0,0,0,78.89,54.72Z" transform="translate(0 0)"/><path id="Path_5497" data-name="Path 5497" class="cls-2" d="M88.08,57.61V50.92H85.79V50.2h5.39v.72H88.89v6.69Z" transform="translate(0 0)"/><path id="Path_5498" data-name="Path 5498" class="cls-2" d="M92.07,57.61V52.23h.8v5.38Zm.2-6.65a.14.14,0,0,1-.16-.12V50a.16.16,0,0,1,.12-.17h.42a.15.15,0,0,1,.15.17v.78c0,.11,0,.16-.15.16Z" transform="translate(0 0)"/><path id="Path_5499" data-name="Path 5499" class="cls-2" d="M96.29,57.68a2.74,2.74,0,0,1-.85-.13,1.47,1.47,0,0,1-.68-.42,2,2,0,0,1-.46-.84,5.17,5.17,0,0,1-.16-1.36,5.28,5.28,0,0,1,.15-1.37,2.06,2.06,0,0,1,.44-.84,1.52,1.52,0,0,1,.68-.43,3.48,3.48,0,0,1,.9-.12c.27,0,.56,0,.88,0s.62.06.91.1v.47H96.52a2,2,0,0,0-.87.17,1.16,1.16,0,0,0-.53.64A3.92,3.92,0,0,0,94.94,55a3.45,3.45,0,0,0,.19,1.31,1.14,1.14,0,0,0,.54.62,2,2,0,0,0,.86.16h1.64v.47l-.54.08a6.26,6.26,0,0,1-.65.06Z" transform="translate(0 0)"/><path id="Path_5500" data-name="Path 5500" class="cls-2" d="M99.27,57.62a.13.13,0,0,1-.16-.12v-.84a.14.14,0,0,1,.12-.16h.48a.15.15,0,0,1,.17.12v.84a.21.21,0,0,1,0,.13.21.21,0,0,1-.12,0Z" transform="translate(0 0)"/><path id="Path_5501" data-name="Path 5501" class="cls-2" d="M105.42,57.61a2,2,0,0,1-.77-.13,1.08,1.08,0,0,1-.53-.46,1.87,1.87,0,0,1-.19-.9V50.2h.81V56a1,1,0,0,0,.12.55.63.63,0,0,0,.32.26,1.47,1.47,0,0,0,.42.06h2.66v.74Z" transform="translate(0 0)"/><path id="Path_5502" data-name="Path 5502" class="cls-2" d="M110.84,57.61a1.86,1.86,0,0,1-.87-.17,1,1,0,0,1-.5-.55,2.53,2.53,0,0,1-.15-1l0-3h-.86v-.52l.87-.14.13-1.5h.61v1.5h1.56v.66H110.1v3a1.77,1.77,0,0,0,.08.56.79.79,0,0,0,.2.33.92.92,0,0,0,.27.16l.27,0,.66.06v.59Z" transform="translate(0 0)"/><path id="Path_5503" data-name="Path 5503" class="cls-2" d="M114.28,57.68a2,2,0,0,1-1.09-.29,1.69,1.69,0,0,1-.64-.89,4.73,4.73,0,0,1-.2-1.54,5.16,5.16,0,0,1,.2-1.61,1.59,1.59,0,0,1,.64-.9,2.17,2.17,0,0,1,1.19-.29,4.41,4.41,0,0,1,.89.1,6.65,6.65,0,0,1,.76.23V49.92h.8v7.7h-.64l-.15-.54a2.56,2.56,0,0,1-.45.27,3.58,3.58,0,0,1-.65.23A2.39,2.39,0,0,1,114.28,57.68Zm.23-.66a2.6,2.6,0,0,0,.84-.14,7.22,7.22,0,0,0,.69-.31V53.05l-.7-.19a3.81,3.81,0,0,0-.75-.07,1.65,1.65,0,0,0-.84.19,1.08,1.08,0,0,0-.46.66,4,4,0,0,0-.15,1.29,4.45,4.45,0,0,0,.13,1.21,1.25,1.25,0,0,0,.44.68A1.49,1.49,0,0,0,114.51,57Z" transform="translate(0 0)"/><path id="Path_5504" data-name="Path 5504" class="cls-2" d="M118.35,57.62a.14.14,0,0,1-.16-.12v-.84a.15.15,0,0,1,.12-.16h.49a.14.14,0,0,1,.16.12v.84a.2.2,0,0,1,0,.13l-.12,0Z" transform="translate(0 0)"/><path id="Path_5505" data-name="Path 5505" class="cls-2" d="M125.18,57.68l-.52,0-.63,0-.61,0-.48-.07v-.62l.61,0,.78,0h.83a3.66,3.66,0,0,0,.81-.09,1.12,1.12,0,0,0,.58-.33,1,1,0,0,0,.22-.7v-.5a1.08,1.08,0,0,0-.26-.79,1.18,1.18,0,0,0-.85-.26h-.8a2.27,2.27,0,0,1-1.43-.4,1.65,1.65,0,0,1-.52-1.4v-.42a1.77,1.77,0,0,1,.56-1.49,2.53,2.53,0,0,1,1.6-.44l.72,0,.78.08a6,6,0,0,1,.63.1V51l-1-.07-1,0a3,3,0,0,0-.79.1.93.93,0,0,0-.51.38,1.33,1.33,0,0,0-.17.76v.34a1,1,0,0,0,.32.85,1.5,1.5,0,0,0,.9.23h.86a2,2,0,0,1,1,.22,1.39,1.39,0,0,1,.59.61,2.13,2.13,0,0,1,.19.89v.58a1.81,1.81,0,0,1-.32,1.15,1.58,1.58,0,0,1-.85.55A4.27,4.27,0,0,1,125.18,57.68Zm-.73,1.85V59.2l.22,0a.87.87,0,0,0,.42-.14.36.36,0,0,0,.15-.32.43.43,0,0,0-.13-.3.86.86,0,0,0-.54-.14l.33-.12a1,1,0,0,1,.64.16.55.55,0,0,1,.21.48.64.64,0,0,1-.25.54,1.28,1.28,0,0,1-.72.19Zm.12-1.25.52-.8h.38l-.53.8Z" transform="translate(0 0)"/><path id="Path_5506" data-name="Path 5506" class="cls-2" d="M130.68,57.61a1.84,1.84,0,0,1-.86-.17,1,1,0,0,1-.5-.55,2.53,2.53,0,0,1-.15-1l0-3h-.86v-.52l.87-.14.13-1.5H130v1.5h1.56v.66H130v3a1.52,1.52,0,0,0,.08.56.69.69,0,0,0,.46.48,1.27,1.27,0,0,0,.28.06l.65.06v.58Z" transform="translate(0 0)"/><path id="Path_5507" data-name="Path 5507" class="cls-2" d="M132.6,57.61V52.23h.8v5.38Zm.2-6.65a.14.14,0,0,1-.16-.12V50a.15.15,0,0,1,.12-.17h.41a.15.15,0,0,1,.15.17v.78c0,.11,0,.16-.15.16Z" transform="translate(0 0)"/><path id="Path_5508" data-name="Path 5508" class="cls-2" d="M134.92,57.62a.15.15,0,0,1-.17-.12v-.84a.15.15,0,0,1,.13-.16h.48a.14.14,0,0,1,.16.12v.84a.16.16,0,0,1,0,.13.24.24,0,0,1-.12,0Z" transform="translate(0 0)"/></g></g></svg>